solid OpenSCAD_Model
  facet normal -0.998026 -0.0627975 0
    outer loop
      vertex 3.25 0 0
      vertex 3.22437 0.407332 20
      vertex 3.22437 0.407332 0
    endloop
  endfacet
  facet normal -0.998026 -0.0627975 0
    outer loop
      vertex 3.22437 0.407332 20
      vertex 3.25 0 0
      vertex 3.25 0 20
    endloop
  endfacet
  facet normal 0.998026 -0.0627975 0
    outer loop
      vertex -3.25 0 20
      vertex -3.22437 0.407332 0
      vertex -3.22437 0.407332 20
    endloop
  endfacet
  facet normal 0.998026 -0.0627975 0
    outer loop
      vertex -3.22437 0.407332 0
      vertex -3.25 0 20
      vertex -3.25 0 0
    endloop
  endfacet
  facet normal 0 -1 0
    outer loop
      vertex -0.204069 3.24359 0
      vertex 0.204069 3.24359 20
      vertex -0.204069 3.24359 20
    endloop
  endfacet
  facet normal 0 -1 -0
    outer loop
      vertex 0.204069 3.24359 20
      vertex -0.204069 3.24359 0
      vertex 0.204069 3.24359 0
    endloop
  endfacet
  facet normal -0.684547 -0.728968 0
    outer loop
      vertex 2.07163 2.50417 0
      vertex 2.36915 2.22478 20
      vertex 2.07163 2.50417 20
    endloop
  endfacet
  facet normal -0.684547 -0.728968 -0
    outer loop
      vertex 2.36915 2.22478 20
      vertex 2.07163 2.50417 0
      vertex 2.36915 2.22478 0
    endloop
  endfacet
  facet normal 0.684547 -0.728968 0
    outer loop
      vertex -2.36915 2.22478 0
      vertex -2.07163 2.50417 20
      vertex -2.36915 2.22478 20
    endloop
  endfacet
  facet normal 0.684547 -0.728968 0
    outer loop
      vertex -2.07163 2.50417 20
      vertex -2.36915 2.22478 0
      vertex -2.07163 2.50417 0
    endloop
  endfacet
  facet normal 0.36811 -0.929782 0
    outer loop
      vertex -1.38378 2.94069 0
      vertex -1.0043 3.09093 20
      vertex -1.38378 2.94069 20
    endloop
  endfacet
  facet normal 0.36811 -0.929782 0
    outer loop
      vertex -1.0043 3.09093 20
      vertex -1.38378 2.94069 0
      vertex -1.0043 3.09093 0
    endloop
  endfacet
  facet normal -0.844317 0.535845 0
    outer loop
      vertex 2.6293 -1.9103 0
      vertex 2.848 -1.5657 20
      vertex 2.848 -1.5657 0
    endloop
  endfacet
  facet normal -0.844317 0.535845 0
    outer loop
      vertex 2.848 -1.5657 20
      vertex 2.6293 -1.9103 0
      vertex 2.6293 -1.9103 20
    endloop
  endfacet
  facet normal -0.904836 -0.42576 0
    outer loop
      vertex 3.02177 1.1964 0
      vertex 2.848 1.5657 20
      vertex 2.848 1.5657 0
    endloop
  endfacet
  facet normal -0.904836 -0.42576 0
    outer loop
      vertex 2.848 1.5657 20
      vertex 3.02177 1.1964 0
      vertex 3.02177 1.1964 20
    endloop
  endfacet
  facet normal -0.844317 -0.535845 0
    outer loop
      vertex 2.848 1.5657 0
      vertex 2.6293 1.9103 20
      vertex 2.6293 1.9103 0
    endloop
  endfacet
  facet normal -0.844317 -0.535845 0
    outer loop
      vertex 2.6293 1.9103 20
      vertex 2.848 1.5657 0
      vertex 2.848 1.5657 20
    endloop
  endfacet
  facet normal -0.36811 -0.929782 0
    outer loop
      vertex 1.0043 3.09093 0
      vertex 1.38378 2.94069 20
      vertex 1.0043 3.09093 20
    endloop
  endfacet
  facet normal -0.36811 -0.929782 -0
    outer loop
      vertex 1.38378 2.94069 20
      vertex 1.0043 3.09093 0
      vertex 1.38378 2.94069 0
    endloop
  endfacet
  facet normal -0.248693 -0.968582 0
    outer loop
      vertex 0.608989 3.19243 0
      vertex 1.0043 3.09093 20
      vertex 0.608989 3.19243 20
    endloop
  endfacet
  facet normal -0.248693 -0.968582 -0
    outer loop
      vertex 1.0043 3.09093 20
      vertex 0.608989 3.19243 0
      vertex 1.0043 3.09093 0
    endloop
  endfacet
  facet normal -0.58779 -0.809014 0
    outer loop
      vertex 1.74144 2.74407 0
      vertex 2.07163 2.50417 20
      vertex 1.74144 2.74407 20
    endloop
  endfacet
  facet normal -0.58779 -0.809014 -0
    outer loop
      vertex 2.07163 2.50417 20
      vertex 1.74144 2.74407 0
      vertex 2.07163 2.50417 0
    endloop
  endfacet
  facet normal 0.844317 -0.535845 0
    outer loop
      vertex -2.848 1.5657 20
      vertex -2.6293 1.9103 0
      vertex -2.6293 1.9103 20
    endloop
  endfacet
  facet normal 0.844317 -0.535845 0
    outer loop
      vertex -2.6293 1.9103 0
      vertex -2.848 1.5657 20
      vertex -2.848 1.5657 0
    endloop
  endfacet
  facet normal 0.770526 -0.637409 0
    outer loop
      vertex -2.6293 1.9103 20
      vertex -2.36915 2.22478 0
      vertex -2.36915 2.22478 20
    endloop
  endfacet
  facet normal 0.770526 -0.637409 0
    outer loop
      vertex -2.36915 2.22478 0
      vertex -2.6293 1.9103 20
      vertex -2.6293 1.9103 0
    endloop
  endfacet
  facet normal 0.951057 -0.309017 0
    outer loop
      vertex -3.14789 0.808242 20
      vertex -3.02177 1.1964 0
      vertex -3.02177 1.1964 20
    endloop
  endfacet
  facet normal 0.951057 -0.309017 0
    outer loop
      vertex -3.02177 1.1964 0
      vertex -3.14789 0.808242 20
      vertex -3.14789 0.808242 0
    endloop
  endfacet
  facet normal 0.481744 -0.876312 0
    outer loop
      vertex -1.74144 2.74407 0
      vertex -1.38378 2.94069 20
      vertex -1.74144 2.74407 20
    endloop
  endfacet
  facet normal 0.481744 -0.876312 0
    outer loop
      vertex -1.38378 2.94069 20
      vertex -1.74144 2.74407 0
      vertex -1.38378 2.94069 0
    endloop
  endfacet
  facet normal 0.125349 -0.992113 0
    outer loop
      vertex -0.608989 3.19243 0
      vertex -0.204069 3.24359 20
      vertex -0.608989 3.19243 20
    endloop
  endfacet
  facet normal 0.125349 -0.992113 0
    outer loop
      vertex -0.204069 3.24359 20
      vertex -0.608989 3.19243 0
      vertex -0.204069 3.24359 0
    endloop
  endfacet
  facet normal -0.998026 0.0627975 0
    outer loop
      vertex 3.22437 -0.407332 0
      vertex 3.25 0 20
      vertex 3.25 0 0
    endloop
  endfacet
  facet normal -0.998026 0.0627975 0
    outer loop
      vertex 3.25 0 20
      vertex 3.22437 -0.407332 0
      vertex 3.22437 -0.407332 20
    endloop
  endfacet
  facet normal 0.248693 0.968582 -0
    outer loop
      vertex -0.608989 -3.19243 0
      vertex -1.0043 -3.09093 20
      vertex -0.608989 -3.19243 20
    endloop
  endfacet
  facet normal 0.248693 0.968582 0
    outer loop
      vertex -1.0043 -3.09093 20
      vertex -0.608989 -3.19243 0
      vertex -1.0043 -3.09093 0
    endloop
  endfacet
  facet normal -0.125349 0.992113 0
    outer loop
      vertex 0.608989 -3.19243 0
      vertex 0.204069 -3.24359 20
      vertex 0.608989 -3.19243 20
    endloop
  endfacet
  facet normal -0.125349 0.992113 0
    outer loop
      vertex 0.204069 -3.24359 20
      vertex 0.608989 -3.19243 0
      vertex 0.204069 -3.24359 0
    endloop
  endfacet
  facet normal -0.951057 -0.309017 0
    outer loop
      vertex 3.14789 0.808242 0
      vertex 3.02177 1.1964 20
      vertex 3.02177 1.1964 0
    endloop
  endfacet
  facet normal -0.951057 -0.309017 0
    outer loop
      vertex 3.02177 1.1964 20
      vertex 3.14789 0.808242 0
      vertex 3.14789 0.808242 20
    endloop
  endfacet
  facet normal -0.982286 -0.187387 0
    outer loop
      vertex 3.22437 0.407332 0
      vertex 3.14789 0.808242 20
      vertex 3.14789 0.808242 0
    endloop
  endfacet
  facet normal -0.982286 -0.187387 0
    outer loop
      vertex 3.14789 0.808242 20
      vertex 3.22437 0.407332 0
      vertex 3.22437 0.407332 20
    endloop
  endfacet
  facet normal -0.770526 -0.637409 0
    outer loop
      vertex 2.6293 1.9103 0
      vertex 2.36915 2.22478 20
      vertex 2.36915 2.22478 0
    endloop
  endfacet
  facet normal -0.770526 -0.637409 0
    outer loop
      vertex 2.36915 2.22478 20
      vertex 2.6293 1.9103 0
      vertex 2.6293 1.9103 20
    endloop
  endfacet
  facet normal -0.125349 -0.992113 0
    outer loop
      vertex 0.204069 3.24359 0
      vertex 0.608989 3.19243 20
      vertex 0.204069 3.24359 20
    endloop
  endfacet
  facet normal -0.125349 -0.992113 -0
    outer loop
      vertex 0.608989 3.19243 20
      vertex 0.204069 3.24359 0
      vertex 0.608989 3.19243 0
    endloop
  endfacet
  facet normal 0.904836 -0.42576 0
    outer loop
      vertex -3.02177 1.1964 20
      vertex -2.848 1.5657 0
      vertex -2.848 1.5657 20
    endloop
  endfacet
  facet normal 0.904836 -0.42576 0
    outer loop
      vertex -2.848 1.5657 0
      vertex -3.02177 1.1964 20
      vertex -3.02177 1.1964 0
    endloop
  endfacet
  facet normal -0.58779 0.809014 0
    outer loop
      vertex 2.07163 -2.50417 0
      vertex 1.74144 -2.74407 20
      vertex 2.07163 -2.50417 20
    endloop
  endfacet
  facet normal -0.58779 0.809014 0
    outer loop
      vertex 1.74144 -2.74407 20
      vertex 2.07163 -2.50417 0
      vertex 1.74144 -2.74407 0
    endloop
  endfacet
  facet normal -0.951057 0.309017 0
    outer loop
      vertex 3.02177 -1.1964 0
      vertex 3.14789 -0.808242 20
      vertex 3.14789 -0.808242 0
    endloop
  endfacet
  facet normal -0.951057 0.309017 0
    outer loop
      vertex 3.14789 -0.808242 20
      vertex 3.02177 -1.1964 0
      vertex 3.02177 -1.1964 20
    endloop
  endfacet
  facet normal -0.904836 0.42576 0
    outer loop
      vertex 2.848 -1.5657 0
      vertex 3.02177 -1.1964 20
      vertex 3.02177 -1.1964 0
    endloop
  endfacet
  facet normal -0.904836 0.42576 0
    outer loop
      vertex 3.02177 -1.1964 20
      vertex 2.848 -1.5657 0
      vertex 2.848 -1.5657 20
    endloop
  endfacet
  facet normal -0.982286 0.187387 0
    outer loop
      vertex 3.14789 -0.808242 0
      vertex 3.22437 -0.407332 20
      vertex 3.22437 -0.407332 0
    endloop
  endfacet
  facet normal -0.982286 0.187387 0
    outer loop
      vertex 3.22437 -0.407332 20
      vertex 3.14789 -0.808242 0
      vertex 3.14789 -0.808242 20
    endloop
  endfacet
  facet normal 0.125349 0.992113 -0
    outer loop
      vertex -0.204069 -3.24359 0
      vertex -0.608989 -3.19243 20
      vertex -0.204069 -3.24359 20
    endloop
  endfacet
  facet normal 0.125349 0.992113 0
    outer loop
      vertex -0.608989 -3.19243 20
      vertex -0.204069 -3.24359 0
      vertex -0.608989 -3.19243 0
    endloop
  endfacet
  facet normal 0.951057 0.309017 0
    outer loop
      vertex -3.02177 -1.1964 20
      vertex -3.14789 -0.808242 0
      vertex -3.14789 -0.808242 20
    endloop
  endfacet
  facet normal 0.951057 0.309017 0
    outer loop
      vertex -3.14789 -0.808242 0
      vertex -3.02177 -1.1964 20
      vertex -3.02177 -1.1964 0
    endloop
  endfacet
  facet normal -0.481744 0.876312 0
    outer loop
      vertex 1.74144 -2.74407 0
      vertex 1.38378 -2.94069 20
      vertex 1.74144 -2.74407 20
    endloop
  endfacet
  facet normal -0.481744 0.876312 0
    outer loop
      vertex 1.38378 -2.94069 20
      vertex 1.74144 -2.74407 0
      vertex 1.38378 -2.94069 0
    endloop
  endfacet
  facet normal -0.481744 -0.876312 0
    outer loop
      vertex 1.38378 2.94069 0
      vertex 1.74144 2.74407 20
      vertex 1.38378 2.94069 20
    endloop
  endfacet
  facet normal -0.481744 -0.876312 -0
    outer loop
      vertex 1.74144 2.74407 20
      vertex 1.38378 2.94069 0
      vertex 1.74144 2.74407 0
    endloop
  endfacet
  facet normal 0.982286 -0.187387 0
    outer loop
      vertex -3.22437 0.407332 20
      vertex -3.14789 0.808242 0
      vertex -3.14789 0.808242 20
    endloop
  endfacet
  facet normal 0.982286 -0.187387 0
    outer loop
      vertex -3.14789 0.808242 0
      vertex -3.22437 0.407332 20
      vertex -3.22437 0.407332 0
    endloop
  endfacet
  facet normal 0.58779 -0.809014 0
    outer loop
      vertex -2.07163 2.50417 0
      vertex -1.74144 2.74407 20
      vertex -2.07163 2.50417 20
    endloop
  endfacet
  facet normal 0.58779 -0.809014 0
    outer loop
      vertex -1.74144 2.74407 20
      vertex -2.07163 2.50417 0
      vertex -1.74144 2.74407 0
    endloop
  endfacet
  facet normal 0.248693 -0.968582 0
    outer loop
      vertex -1.0043 3.09093 0
      vertex -0.608989 3.19243 20
      vertex -1.0043 3.09093 20
    endloop
  endfacet
  facet normal 0.248693 -0.968582 0
    outer loop
      vertex -0.608989 3.19243 20
      vertex -1.0043 3.09093 0
      vertex -0.608989 3.19243 0
    endloop
  endfacet
  facet normal 0.36811 0.929782 -0
    outer loop
      vertex -1.0043 -3.09093 0
      vertex -1.38378 -2.94069 20
      vertex -1.0043 -3.09093 20
    endloop
  endfacet
  facet normal 0.36811 0.929782 0
    outer loop
      vertex -1.38378 -2.94069 20
      vertex -1.0043 -3.09093 0
      vertex -1.38378 -2.94069 0
    endloop
  endfacet
  facet normal 0.770526 0.637409 0
    outer loop
      vertex -2.36915 -2.22478 20
      vertex -2.6293 -1.9103 0
      vertex -2.6293 -1.9103 20
    endloop
  endfacet
  facet normal 0.770526 0.637409 0
    outer loop
      vertex -2.6293 -1.9103 0
      vertex -2.36915 -2.22478 20
      vertex -2.36915 -2.22478 0
    endloop
  endfacet
  facet normal 0.998026 0.0627975 0
    outer loop
      vertex -3.22437 -0.407332 20
      vertex -3.25 0 0
      vertex -3.25 0 20
    endloop
  endfacet
  facet normal 0.998026 0.0627975 0
    outer loop
      vertex -3.25 0 0
      vertex -3.22437 -0.407332 20
      vertex -3.22437 -0.407332 0
    endloop
  endfacet
  facet normal -0.684547 0.728968 0
    outer loop
      vertex 2.36915 -2.22478 0
      vertex 2.07163 -2.50417 20
      vertex 2.36915 -2.22478 20
    endloop
  endfacet
  facet normal -0.684547 0.728968 0
    outer loop
      vertex 2.07163 -2.50417 20
      vertex 2.36915 -2.22478 0
      vertex 2.07163 -2.50417 0
    endloop
  endfacet
  facet normal -0.770526 0.637409 0
    outer loop
      vertex 2.36915 -2.22478 0
      vertex 2.6293 -1.9103 20
      vertex 2.6293 -1.9103 0
    endloop
  endfacet
  facet normal -0.770526 0.637409 0
    outer loop
      vertex 2.6293 -1.9103 20
      vertex 2.36915 -2.22478 0
      vertex 2.36915 -2.22478 20
    endloop
  endfacet
  facet normal 0 1 -0
    outer loop
      vertex 0.204069 -3.24359 0
      vertex -0.204069 -3.24359 20
      vertex 0.204069 -3.24359 20
    endloop
  endfacet
  facet normal 0 1 0
    outer loop
      vertex -0.204069 -3.24359 20
      vertex 0.204069 -3.24359 0
      vertex -0.204069 -3.24359 0
    endloop
  endfacet
  facet normal 0.481744 0.876312 -0
    outer loop
      vertex -1.38378 -2.94069 0
      vertex -1.74144 -2.74407 20
      vertex -1.38378 -2.94069 20
    endloop
  endfacet
  facet normal 0.481744 0.876312 0
    outer loop
      vertex -1.74144 -2.74407 20
      vertex -1.38378 -2.94069 0
      vertex -1.74144 -2.74407 0
    endloop
  endfacet
  facet normal 0.684547 0.728968 -0
    outer loop
      vertex -2.07163 -2.50417 0
      vertex -2.36915 -2.22478 20
      vertex -2.07163 -2.50417 20
    endloop
  endfacet
  facet normal 0.684547 0.728968 0
    outer loop
      vertex -2.36915 -2.22478 20
      vertex -2.07163 -2.50417 0
      vertex -2.36915 -2.22478 0
    endloop
  endfacet
  facet normal 0.844317 0.535845 0
    outer loop
      vertex -2.6293 -1.9103 20
      vertex -2.848 -1.5657 0
      vertex -2.848 -1.5657 20
    endloop
  endfacet
  facet normal 0.844317 0.535845 0
    outer loop
      vertex -2.848 -1.5657 0
      vertex -2.6293 -1.9103 20
      vertex -2.6293 -1.9103 0
    endloop
  endfacet
  facet normal 0.904836 0.42576 0
    outer loop
      vertex -2.848 -1.5657 20
      vertex -3.02177 -1.1964 0
      vertex -3.02177 -1.1964 20
    endloop
  endfacet
  facet normal 0.904836 0.42576 0
    outer loop
      vertex -3.02177 -1.1964 0
      vertex -2.848 -1.5657 20
      vertex -2.848 -1.5657 0
    endloop
  endfacet
  facet normal 0.982286 0.187387 0
    outer loop
      vertex -3.14789 -0.808242 20
      vertex -3.22437 -0.407332 0
      vertex -3.22437 -0.407332 20
    endloop
  endfacet
  facet normal 0.982286 0.187387 0
    outer loop
      vertex -3.22437 -0.407332 0
      vertex -3.14789 -0.808242 20
      vertex -3.14789 -0.808242 0
    endloop
  endfacet
  facet normal -0.248693 0.968582 0
    outer loop
      vertex 1.0043 -3.09093 0
      vertex 0.608989 -3.19243 20
      vertex 1.0043 -3.09093 20
    endloop
  endfacet
  facet normal -0.248693 0.968582 0
    outer loop
      vertex 0.608989 -3.19243 20
      vertex 1.0043 -3.09093 0
      vertex 0.608989 -3.19243 0
    endloop
  endfacet
  facet normal -0.36811 0.929782 0
    outer loop
      vertex 1.38378 -2.94069 0
      vertex 1.0043 -3.09093 20
      vertex 1.38378 -2.94069 20
    endloop
  endfacet
  facet normal -0.36811 0.929782 0
    outer loop
      vertex 1.0043 -3.09093 20
      vertex 1.38378 -2.94069 0
      vertex 1.0043 -3.09093 0
    endloop
  endfacet
  facet normal 0.58779 0.809014 -0
    outer loop
      vertex -1.74144 -2.74407 0
      vertex -2.07163 -2.50417 20
      vertex -1.74144 -2.74407 20
    endloop
  endfacet
  facet normal 0.58779 0.809014 0
    outer loop
      vertex -2.07163 -2.50417 20
      vertex -1.74144 -2.74407 0
      vertex -2.07163 -2.50417 0
    endloop
  endfacet
  facet normal -0.770546 -0.637385 0
    outer loop
      vertex 2.6293 17.7853 0
      vertex 2.36915 18.0998 20
      vertex 2.36915 18.0998 0
    endloop
  endfacet
  facet normal -0.770546 -0.637385 0
    outer loop
      vertex 2.36915 18.0998 20
      vertex 2.6293 17.7853 0
      vertex 2.6293 17.7853 20
    endloop
  endfacet
  facet normal -0.125446 -0.9921 0
    outer loop
      vertex 0.204069 19.1186 0
      vertex 0.608989 19.0674 20
      vertex 0.204069 19.1186 20
    endloop
  endfacet
  facet normal -0.125446 -0.9921 -0
    outer loop
      vertex 0.608989 19.0674 20
      vertex 0.204069 19.1186 0
      vertex 0.608989 19.0674 0
    endloop
  endfacet
  facet normal -0.248693 -0.968582 0
    outer loop
      vertex 0.608989 19.0674 0
      vertex 1.0043 18.9659 20
      vertex 0.608989 19.0674 20
    endloop
  endfacet
  facet normal -0.248693 -0.968582 -0
    outer loop
      vertex 1.0043 18.9659 20
      vertex 0.608989 19.0674 0
      vertex 1.0043 18.9659 0
    endloop
  endfacet
  facet normal 0.481706 -0.876333 0
    outer loop
      vertex -1.74144 18.6191 0
      vertex -1.38378 18.8157 20
      vertex -1.74144 18.6191 20
    endloop
  endfacet
  facet normal 0.481706 -0.876333 0
    outer loop
      vertex -1.38378 18.8157 20
      vertex -1.74144 18.6191 0
      vertex -1.38378 18.8157 0
    endloop
  endfacet
  facet normal 0.951066 -0.308986 0
    outer loop
      vertex -3.14789 16.6832 20
      vertex -3.02177 17.0714 0
      vertex -3.02177 17.0714 20
    endloop
  endfacet
  facet normal 0.951066 -0.308986 0
    outer loop
      vertex -3.02177 17.0714 0
      vertex -3.14789 16.6832 20
      vertex -3.14789 16.6832 0
    endloop
  endfacet
  facet normal -0.998026 0.0628024 0
    outer loop
      vertex 3.22437 15.4677 0
      vertex 3.25 15.875 20
      vertex 3.25 15.875 0
    endloop
  endfacet
  facet normal -0.998026 0.0628024 0
    outer loop
      vertex 3.25 15.875 20
      vertex 3.22437 15.4677 0
      vertex 3.22437 15.4677 20
    endloop
  endfacet
  facet normal -0.481706 0.876333 0
    outer loop
      vertex 1.74144 13.1309 0
      vertex 1.38378 12.9343 20
      vertex 1.74144 13.1309 20
    endloop
  endfacet
  facet normal -0.481706 0.876333 0
    outer loop
      vertex 1.38378 12.9343 20
      vertex 1.74144 13.1309 0
      vertex 1.38378 12.9343 0
    endloop
  endfacet
  facet normal -0.58779 -0.809014 0
    outer loop
      vertex 1.74144 18.6191 0
      vertex 2.07163 18.3792 20
      vertex 1.74144 18.6191 20
    endloop
  endfacet
  facet normal -0.58779 -0.809014 -0
    outer loop
      vertex 2.07163 18.3792 20
      vertex 1.74144 18.6191 0
      vertex 2.07163 18.3792 0
    endloop
  endfacet
  facet normal 0 -1 0
    outer loop
      vertex -0.204069 19.1186 0
      vertex 0.204069 19.1186 20
      vertex -0.204069 19.1186 20
    endloop
  endfacet
  facet normal 0 -1 -0
    outer loop
      vertex 0.204069 19.1186 20
      vertex -0.204069 19.1186 0
      vertex 0.204069 19.1186 0
    endloop
  endfacet
  facet normal -0.481706 -0.876333 0
    outer loop
      vertex 1.38378 18.8157 0
      vertex 1.74144 18.6191 20
      vertex 1.38378 18.8157 20
    endloop
  endfacet
  facet normal -0.481706 -0.876333 -0
    outer loop
      vertex 1.74144 18.6191 20
      vertex 1.38378 18.8157 0
      vertex 1.74144 18.6191 0
    endloop
  endfacet
  facet normal 0.998026 -0.0628024 0
    outer loop
      vertex -3.25 15.875 20
      vertex -3.22437 16.2823 0
      vertex -3.22437 16.2823 20
    endloop
  endfacet
  facet normal 0.998026 -0.0628024 0
    outer loop
      vertex -3.22437 16.2823 0
      vertex -3.25 15.875 20
      vertex -3.25 15.875 0
    endloop
  endfacet
  facet normal 0.844317 -0.535845 0
    outer loop
      vertex -2.848 17.4407 20
      vertex -2.6293 17.7853 0
      vertex -2.6293 17.7853 20
    endloop
  endfacet
  facet normal 0.844317 -0.535845 0
    outer loop
      vertex -2.6293 17.7853 0
      vertex -2.848 17.4407 20
      vertex -2.848 17.4407 0
    endloop
  endfacet
  facet normal 0.58779 -0.809014 0
    outer loop
      vertex -2.07163 18.3792 0
      vertex -1.74144 18.6191 20
      vertex -2.07163 18.3792 20
    endloop
  endfacet
  facet normal 0.58779 -0.809014 0
    outer loop
      vertex -1.74144 18.6191 20
      vertex -2.07163 18.3792 0
      vertex -1.74144 18.6191 0
    endloop
  endfacet
  facet normal 0.68456 -0.728956 0
    outer loop
      vertex -2.36915 18.0998 0
      vertex -2.07163 18.3792 20
      vertex -2.36915 18.0998 20
    endloop
  endfacet
  facet normal 0.68456 -0.728956 0
    outer loop
      vertex -2.07163 18.3792 20
      vertex -2.36915 18.0998 0
      vertex -2.07163 18.3792 0
    endloop
  endfacet
  facet normal -0.998026 -0.0628024 0
    outer loop
      vertex 3.25 15.875 0
      vertex 3.22437 16.2823 20
      vertex 3.22437 16.2823 0
    endloop
  endfacet
  facet normal -0.998026 -0.0628024 0
    outer loop
      vertex 3.22437 16.2823 20
      vertex 3.25 15.875 0
      vertex 3.25 15.875 20
    endloop
  endfacet
  facet normal -0.58779 0.809014 0
    outer loop
      vertex 2.07163 13.3708 0
      vertex 1.74144 13.1309 20
      vertex 2.07163 13.3708 20
    endloop
  endfacet
  facet normal -0.58779 0.809014 0
    outer loop
      vertex 1.74144 13.1309 20
      vertex 2.07163 13.3708 0
      vertex 1.74144 13.1309 0
    endloop
  endfacet
  facet normal -0.951066 0.308986 0
    outer loop
      vertex 3.02177 14.6786 0
      vertex 3.14789 15.0668 20
      vertex 3.14789 15.0668 0
    endloop
  endfacet
  facet normal -0.951066 0.308986 0
    outer loop
      vertex 3.14789 15.0668 20
      vertex 3.02177 14.6786 0
      vertex 3.02177 14.6786 20
    endloop
  endfacet
  facet normal 0.125446 0.9921 -0
    outer loop
      vertex -0.204069 12.6314 0
      vertex -0.608989 12.6826 20
      vertex -0.204069 12.6314 20
    endloop
  endfacet
  facet normal 0.125446 0.9921 0
    outer loop
      vertex -0.608989 12.6826 20
      vertex -0.204069 12.6314 0
      vertex -0.608989 12.6826 0
    endloop
  endfacet
  facet normal -0.368026 0.929816 0
    outer loop
      vertex 1.38378 12.9343 0
      vertex 1.0043 12.7841 20
      vertex 1.38378 12.9343 20
    endloop
  endfacet
  facet normal -0.368026 0.929816 0
    outer loop
      vertex 1.0043 12.7841 20
      vertex 1.38378 12.9343 0
      vertex 1.0043 12.7841 0
    endloop
  endfacet
  facet normal -0.982285 -0.187391 0
    outer loop
      vertex 3.22437 16.2823 0
      vertex 3.14789 16.6832 20
      vertex 3.14789 16.6832 0
    endloop
  endfacet
  facet normal -0.982285 -0.187391 0
    outer loop
      vertex 3.14789 16.6832 20
      vertex 3.22437 16.2823 0
      vertex 3.22437 16.2823 20
    endloop
  endfacet
  facet normal -0.68456 -0.728956 0
    outer loop
      vertex 2.07163 18.3792 0
      vertex 2.36915 18.0998 20
      vertex 2.07163 18.3792 20
    endloop
  endfacet
  facet normal -0.68456 -0.728956 -0
    outer loop
      vertex 2.36915 18.0998 20
      vertex 2.07163 18.3792 0
      vertex 2.36915 18.0998 0
    endloop
  endfacet
  facet normal 0.125446 -0.9921 0
    outer loop
      vertex -0.608989 19.0674 0
      vertex -0.204069 19.1186 20
      vertex -0.608989 19.0674 20
    endloop
  endfacet
  facet normal 0.125446 -0.9921 0
    outer loop
      vertex -0.204069 19.1186 20
      vertex -0.608989 19.0674 0
      vertex -0.204069 19.1186 0
    endloop
  endfacet
  facet normal -0.368026 -0.929816 0
    outer loop
      vertex 1.0043 18.9659 0
      vertex 1.38378 18.8157 20
      vertex 1.0043 18.9659 20
    endloop
  endfacet
  facet normal -0.368026 -0.929816 -0
    outer loop
      vertex 1.38378 18.8157 20
      vertex 1.0043 18.9659 0
      vertex 1.38378 18.8157 0
    endloop
  endfacet
  facet normal 0.998026 0.0628024 0
    outer loop
      vertex -3.22437 15.4677 20
      vertex -3.25 15.875 0
      vertex -3.25 15.875 20
    endloop
  endfacet
  facet normal 0.998026 0.0628024 0
    outer loop
      vertex -3.25 15.875 0
      vertex -3.22437 15.4677 20
      vertex -3.22437 15.4677 0
    endloop
  endfacet
  facet normal 0.982285 -0.187391 0
    outer loop
      vertex -3.22437 16.2823 20
      vertex -3.14789 16.6832 0
      vertex -3.14789 16.6832 20
    endloop
  endfacet
  facet normal 0.982285 -0.187391 0
    outer loop
      vertex -3.14789 16.6832 0
      vertex -3.22437 16.2823 20
      vertex -3.22437 16.2823 0
    endloop
  endfacet
  facet normal 0.904836 -0.42576 0
    outer loop
      vertex -3.02177 17.0714 20
      vertex -2.848 17.4407 0
      vertex -2.848 17.4407 20
    endloop
  endfacet
  facet normal 0.904836 -0.42576 0
    outer loop
      vertex -2.848 17.4407 0
      vertex -3.02177 17.0714 20
      vertex -3.02177 17.0714 0
    endloop
  endfacet
  facet normal 0.248693 -0.968582 0
    outer loop
      vertex -1.0043 18.9659 0
      vertex -0.608989 19.0674 20
      vertex -1.0043 18.9659 20
    endloop
  endfacet
  facet normal 0.248693 -0.968582 0
    outer loop
      vertex -0.608989 19.0674 20
      vertex -1.0043 18.9659 0
      vertex -0.608989 19.0674 0
    endloop
  endfacet
  facet normal 0.368026 -0.929816 0
    outer loop
      vertex -1.38378 18.8157 0
      vertex -1.0043 18.9659 20
      vertex -1.38378 18.8157 20
    endloop
  endfacet
  facet normal 0.368026 -0.929816 0
    outer loop
      vertex -1.0043 18.9659 20
      vertex -1.38378 18.8157 0
      vertex -1.0043 18.9659 0
    endloop
  endfacet
  facet normal 0.770546 -0.637385 0
    outer loop
      vertex -2.6293 17.7853 20
      vertex -2.36915 18.0998 0
      vertex -2.36915 18.0998 20
    endloop
  endfacet
  facet normal 0.770546 -0.637385 0
    outer loop
      vertex -2.36915 18.0998 0
      vertex -2.6293 17.7853 20
      vertex -2.6293 17.7853 0
    endloop
  endfacet
  facet normal -0.982285 0.187391 0
    outer loop
      vertex 3.14789 15.0668 0
      vertex 3.22437 15.4677 20
      vertex 3.22437 15.4677 0
    endloop
  endfacet
  facet normal -0.982285 0.187391 0
    outer loop
      vertex 3.22437 15.4677 20
      vertex 3.14789 15.0668 0
      vertex 3.14789 15.0668 20
    endloop
  endfacet
  facet normal -0.844317 0.535845 0
    outer loop
      vertex 2.6293 13.9647 0
      vertex 2.848 14.3093 20
      vertex 2.848 14.3093 0
    endloop
  endfacet
  facet normal -0.844317 0.535845 0
    outer loop
      vertex 2.848 14.3093 20
      vertex 2.6293 13.9647 0
      vertex 2.6293 13.9647 20
    endloop
  endfacet
  facet normal -0.904836 0.42576 0
    outer loop
      vertex 2.848 14.3093 0
      vertex 3.02177 14.6786 20
      vertex 3.02177 14.6786 0
    endloop
  endfacet
  facet normal -0.904836 0.42576 0
    outer loop
      vertex 3.02177 14.6786 20
      vertex 2.848 14.3093 0
      vertex 2.848 14.3093 20
    endloop
  endfacet
  facet normal -0.248693 0.968582 0
    outer loop
      vertex 1.0043 12.7841 0
      vertex 0.608989 12.6826 20
      vertex 1.0043 12.7841 20
    endloop
  endfacet
  facet normal -0.248693 0.968582 0
    outer loop
      vertex 0.608989 12.6826 20
      vertex 1.0043 12.7841 0
      vertex 0.608989 12.6826 0
    endloop
  endfacet
  facet normal -0.844317 -0.535845 0
    outer loop
      vertex 2.848 17.4407 0
      vertex 2.6293 17.7853 20
      vertex 2.6293 17.7853 0
    endloop
  endfacet
  facet normal -0.844317 -0.535845 0
    outer loop
      vertex 2.6293 17.7853 20
      vertex 2.848 17.4407 0
      vertex 2.848 17.4407 20
    endloop
  endfacet
  facet normal -0.904836 -0.42576 0
    outer loop
      vertex 3.02177 17.0714 0
      vertex 2.848 17.4407 20
      vertex 2.848 17.4407 0
    endloop
  endfacet
  facet normal -0.904836 -0.42576 0
    outer loop
      vertex 2.848 17.4407 20
      vertex 3.02177 17.0714 0
      vertex 3.02177 17.0714 20
    endloop
  endfacet
  facet normal -0.951066 -0.308986 0
    outer loop
      vertex 3.14789 16.6832 0
      vertex 3.02177 17.0714 20
      vertex 3.02177 17.0714 0
    endloop
  endfacet
  facet normal -0.951066 -0.308986 0
    outer loop
      vertex 3.02177 17.0714 20
      vertex 3.14789 16.6832 0
      vertex 3.14789 16.6832 20
    endloop
  endfacet
  facet normal 0 1 -0
    outer loop
      vertex 0.204069 12.6314 0
      vertex -0.204069 12.6314 20
      vertex 0.204069 12.6314 20
    endloop
  endfacet
  facet normal 0 1 0
    outer loop
      vertex -0.204069 12.6314 20
      vertex 0.204069 12.6314 0
      vertex -0.204069 12.6314 0
    endloop
  endfacet
  facet normal 0.982285 0.187391 0
    outer loop
      vertex -3.14789 15.0668 20
      vertex -3.22437 15.4677 0
      vertex -3.22437 15.4677 20
    endloop
  endfacet
  facet normal 0.982285 0.187391 0
    outer loop
      vertex -3.22437 15.4677 0
      vertex -3.14789 15.0668 20
      vertex -3.14789 15.0668 0
    endloop
  endfacet
  facet normal 0.844317 0.535845 0
    outer loop
      vertex -2.6293 13.9647 20
      vertex -2.848 14.3093 0
      vertex -2.848 14.3093 20
    endloop
  endfacet
  facet normal 0.844317 0.535845 0
    outer loop
      vertex -2.848 14.3093 0
      vertex -2.6293 13.9647 20
      vertex -2.6293 13.9647 0
    endloop
  endfacet
  facet normal 0.904836 0.42576 0
    outer loop
      vertex -2.848 14.3093 20
      vertex -3.02177 14.6786 0
      vertex -3.02177 14.6786 20
    endloop
  endfacet
  facet normal 0.904836 0.42576 0
    outer loop
      vertex -3.02177 14.6786 0
      vertex -2.848 14.3093 20
      vertex -2.848 14.3093 0
    endloop
  endfacet
  facet normal 0.58779 0.809014 -0
    outer loop
      vertex -1.74144 13.1309 0
      vertex -2.07163 13.3708 20
      vertex -1.74144 13.1309 20
    endloop
  endfacet
  facet normal 0.58779 0.809014 0
    outer loop
      vertex -2.07163 13.3708 20
      vertex -1.74144 13.1309 0
      vertex -2.07163 13.3708 0
    endloop
  endfacet
  facet normal -0.68456 0.728956 0
    outer loop
      vertex 2.36915 13.6502 0
      vertex 2.07163 13.3708 20
      vertex 2.36915 13.6502 20
    endloop
  endfacet
  facet normal -0.68456 0.728956 0
    outer loop
      vertex 2.07163 13.3708 20
      vertex 2.36915 13.6502 0
      vertex 2.07163 13.3708 0
    endloop
  endfacet
  facet normal -0.770546 0.637385 0
    outer loop
      vertex 2.36915 13.6502 0
      vertex 2.6293 13.9647 20
      vertex 2.6293 13.9647 0
    endloop
  endfacet
  facet normal -0.770546 0.637385 0
    outer loop
      vertex 2.6293 13.9647 20
      vertex 2.36915 13.6502 0
      vertex 2.36915 13.6502 20
    endloop
  endfacet
  facet normal 0.481706 0.876333 -0
    outer loop
      vertex -1.38378 12.9343 0
      vertex -1.74144 13.1309 20
      vertex -1.38378 12.9343 20
    endloop
  endfacet
  facet normal 0.481706 0.876333 0
    outer loop
      vertex -1.74144 13.1309 20
      vertex -1.38378 12.9343 0
      vertex -1.74144 13.1309 0
    endloop
  endfacet
  facet normal -0.125446 0.9921 0
    outer loop
      vertex 0.608989 12.6826 0
      vertex 0.204069 12.6314 20
      vertex 0.608989 12.6826 20
    endloop
  endfacet
  facet normal -0.125446 0.9921 0
    outer loop
      vertex 0.204069 12.6314 20
      vertex 0.608989 12.6826 0
      vertex 0.204069 12.6314 0
    endloop
  endfacet
  facet normal 0.951066 0.308986 0
    outer loop
      vertex -3.02177 14.6786 20
      vertex -3.14789 15.0668 0
      vertex -3.14789 15.0668 20
    endloop
  endfacet
  facet normal 0.951066 0.308986 0
    outer loop
      vertex -3.14789 15.0668 0
      vertex -3.02177 14.6786 20
      vertex -3.02177 14.6786 0
    endloop
  endfacet
  facet normal 0.770546 0.637385 0
    outer loop
      vertex -2.36915 13.6502 20
      vertex -2.6293 13.9647 0
      vertex -2.6293 13.9647 20
    endloop
  endfacet
  facet normal 0.770546 0.637385 0
    outer loop
      vertex -2.6293 13.9647 0
      vertex -2.36915 13.6502 20
      vertex -2.36915 13.6502 0
    endloop
  endfacet
  facet normal 0.368026 0.929816 -0
    outer loop
      vertex -1.0043 12.7841 0
      vertex -1.38378 12.9343 20
      vertex -1.0043 12.7841 20
    endloop
  endfacet
  facet normal 0.368026 0.929816 0
    outer loop
      vertex -1.38378 12.9343 20
      vertex -1.0043 12.7841 0
      vertex -1.38378 12.9343 0
    endloop
  endfacet
  facet normal 0.248693 0.968582 -0
    outer loop
      vertex -0.608989 12.6826 0
      vertex -1.0043 12.7841 20
      vertex -0.608989 12.6826 20
    endloop
  endfacet
  facet normal 0.248693 0.968582 0
    outer loop
      vertex -1.0043 12.7841 20
      vertex -0.608989 12.6826 0
      vertex -1.0043 12.7841 0
    endloop
  endfacet
  facet normal 0.68456 0.728956 -0
    outer loop
      vertex -2.07163 13.3708 0
      vertex -2.36915 13.6502 20
      vertex -2.07163 13.3708 20
    endloop
  endfacet
  facet normal 0.68456 0.728956 0
    outer loop
      vertex -2.36915 13.6502 20
      vertex -2.07163 13.3708 0
      vertex -2.36915 13.6502 0
    endloop
  endfacet
  facet normal -1 0 0
    outer loop
      vertex -4.5 -7 0
      vertex -4.5 22 20
      vertex -4.5 22 0
    endloop
  endfacet
  facet normal -1 -0 0
    outer loop
      vertex -4.5 22 20
      vertex -4.5 -7 0
      vertex -4.5 -7 20
    endloop
  endfacet
  facet normal 0 0 1
    outer loop
      vertex 3.14789 15.0668 20
      vertex 24.5 22 20
      vertex 3.22437 15.4677 20
    endloop
  endfacet
  facet normal 0 0 1
    outer loop
      vertex 24.5 22 20
      vertex 3.22437 0.407332 20
      vertex 3.25 0 20
    endloop
  endfacet
  facet normal 0 0 1
    outer loop
      vertex 3.02177 14.6786 20
      vertex 24.5 22 20
      vertex 3.14789 15.0668 20
    endloop
  endfacet
  facet normal 0 0 1
    outer loop
      vertex 24.5 22 20
      vertex 3.14789 0.808242 20
      vertex 3.22437 0.407332 20
    endloop
  endfacet
  facet normal 0 0 1
    outer loop
      vertex 3.02177 1.1964 20
      vertex 24.5 22 20
      vertex 3.02177 14.6786 20
    endloop
  endfacet
  facet normal 0 0 1
    outer loop
      vertex 24.5 22 20
      vertex 3.02177 1.1964 20
      vertex 3.14789 0.808242 20
    endloop
  endfacet
  facet normal -0 0 1
    outer loop
      vertex 2.848 14.3093 20
      vertex 3.02177 1.1964 20
      vertex 3.02177 14.6786 20
    endloop
  endfacet
  facet normal 0 0 1
    outer loop
      vertex 2.848 14.3093 20
      vertex 2.848 1.5657 20
      vertex 3.02177 1.1964 20
    endloop
  endfacet
  facet normal -0 0 1
    outer loop
      vertex 2.6293 13.9647 20
      vertex 2.848 1.5657 20
      vertex 2.848 14.3093 20
    endloop
  endfacet
  facet normal 0 0 1
    outer loop
      vertex 2.6293 13.9647 20
      vertex 2.6293 1.9103 20
      vertex 2.848 1.5657 20
    endloop
  endfacet
  facet normal -0 0 1
    outer loop
      vertex 2.36915 13.6502 20
      vertex 2.6293 1.9103 20
      vertex 2.6293 13.9647 20
    endloop
  endfacet
  facet normal 0 0 1
    outer loop
      vertex 2.36915 13.6502 20
      vertex 2.36915 2.22478 20
      vertex 2.6293 1.9103 20
    endloop
  endfacet
  facet normal -0 0 1
    outer loop
      vertex 2.07163 13.3708 20
      vertex 2.36915 2.22478 20
      vertex 2.36915 13.6502 20
    endloop
  endfacet
  facet normal 0 0 1
    outer loop
      vertex 2.07163 13.3708 20
      vertex 2.07163 2.50417 20
      vertex 2.36915 2.22478 20
    endloop
  endfacet
  facet normal -0 0 1
    outer loop
      vertex 1.74144 13.1309 20
      vertex 2.07163 2.50417 20
      vertex 2.07163 13.3708 20
    endloop
  endfacet
  facet normal 0 0 1
    outer loop
      vertex 1.74144 13.1309 20
      vertex 1.74144 2.74407 20
      vertex 2.07163 2.50417 20
    endloop
  endfacet
  facet normal -0 0 1
    outer loop
      vertex 1.38378 12.9343 20
      vertex 1.74144 2.74407 20
      vertex 1.74144 13.1309 20
    endloop
  endfacet
  facet normal 0 0 1
    outer loop
      vertex 1.38378 12.9343 20
      vertex 1.38378 2.94069 20
      vertex 1.74144 2.74407 20
    endloop
  endfacet
  facet normal -0 0 1
    outer loop
      vertex 1.0043 12.7841 20
      vertex 1.38378 2.94069 20
      vertex 1.38378 12.9343 20
    endloop
  endfacet
  facet normal 0 0 1
    outer loop
      vertex 1.0043 12.7841 20
      vertex 1.0043 3.09093 20
      vertex 1.38378 2.94069 20
    endloop
  endfacet
  facet normal -0 0 1
    outer loop
      vertex 0.608989 12.6826 20
      vertex 1.0043 3.09093 20
      vertex 1.0043 12.7841 20
    endloop
  endfacet
  facet normal 0 0 1
    outer loop
      vertex 0.608989 12.6826 20
      vertex 0.608989 3.19243 20
      vertex 1.0043 3.09093 20
    endloop
  endfacet
  facet normal -0 0 1
    outer loop
      vertex 0.204069 12.6314 20
      vertex 0.608989 3.19243 20
      vertex 0.608989 12.6826 20
    endloop
  endfacet
  facet normal 0 0 1
    outer loop
      vertex 0.204069 12.6314 20
      vertex 0.204069 3.24359 20
      vertex 0.608989 3.19243 20
    endloop
  endfacet
  facet normal -0 0 1
    outer loop
      vertex -0.204069 12.6314 20
      vertex 0.204069 3.24359 20
      vertex 0.204069 12.6314 20
    endloop
  endfacet
  facet normal 0 0 1
    outer loop
      vertex -0.204069 12.6314 20
      vertex -0.204069 3.24359 20
      vertex 0.204069 3.24359 20
    endloop
  endfacet
  facet normal 0 0 1
    outer loop
      vertex -0.608989 12.6826 20
      vertex -0.204069 3.24359 20
      vertex -0.204069 12.6314 20
    endloop
  endfacet
  facet normal 0 0 1
    outer loop
      vertex -0.608989 12.6826 20
      vertex -0.608989 3.19243 20
      vertex -0.204069 3.24359 20
    endloop
  endfacet
  facet normal 0 0 1
    outer loop
      vertex -1.0043 12.7841 20
      vertex -0.608989 3.19243 20
      vertex -0.608989 12.6826 20
    endloop
  endfacet
  facet normal 0 0 1
    outer loop
      vertex -1.0043 12.7841 20
      vertex -1.0043 3.09093 20
      vertex -0.608989 3.19243 20
    endloop
  endfacet
  facet normal 0 0 1
    outer loop
      vertex -1.38378 12.9343 20
      vertex -1.0043 3.09093 20
      vertex -1.0043 12.7841 20
    endloop
  endfacet
  facet normal 0 0 1
    outer loop
      vertex -1.38378 12.9343 20
      vertex -1.38378 2.94069 20
      vertex -1.0043 3.09093 20
    endloop
  endfacet
  facet normal 0 0 1
    outer loop
      vertex -1.74144 13.1309 20
      vertex -1.38378 2.94069 20
      vertex -1.38378 12.9343 20
    endloop
  endfacet
  facet normal 0 0 1
    outer loop
      vertex -1.74144 13.1309 20
      vertex -1.74144 2.74407 20
      vertex -1.38378 2.94069 20
    endloop
  endfacet
  facet normal 0 0 1
    outer loop
      vertex -2.07163 13.3708 20
      vertex -1.74144 2.74407 20
      vertex -1.74144 13.1309 20
    endloop
  endfacet
  facet normal 0 0 1
    outer loop
      vertex -2.07163 13.3708 20
      vertex -2.07163 2.50417 20
      vertex -1.74144 2.74407 20
    endloop
  endfacet
  facet normal 0 0 1
    outer loop
      vertex -2.36915 13.6502 20
      vertex -2.07163 2.50417 20
      vertex -2.07163 13.3708 20
    endloop
  endfacet
  facet normal 0 0 1
    outer loop
      vertex -2.36915 13.6502 20
      vertex -2.36915 2.22478 20
      vertex -2.07163 2.50417 20
    endloop
  endfacet
  facet normal 0 0 1
    outer loop
      vertex -2.6293 13.9647 20
      vertex -2.36915 2.22478 20
      vertex -2.36915 13.6502 20
    endloop
  endfacet
  facet normal 0 0 1
    outer loop
      vertex -2.6293 13.9647 20
      vertex -2.6293 1.9103 20
      vertex -2.36915 2.22478 20
    endloop
  endfacet
  facet normal 0 0 1
    outer loop
      vertex -2.848 14.3093 20
      vertex -2.6293 1.9103 20
      vertex -2.6293 13.9647 20
    endloop
  endfacet
  facet normal 0 0 1
    outer loop
      vertex -2.848 14.3093 20
      vertex -2.848 1.5657 20
      vertex -2.6293 1.9103 20
    endloop
  endfacet
  facet normal 0 0 1
    outer loop
      vertex -3.02177 14.6786 20
      vertex -2.848 1.5657 20
      vertex -2.848 14.3093 20
    endloop
  endfacet
  facet normal 0 0 1
    outer loop
      vertex -3.02177 14.6786 20
      vertex -3.02177 1.1964 20
      vertex -2.848 1.5657 20
    endloop
  endfacet
  facet normal 0 0 1
    outer loop
      vertex -3.14789 15.0668 20
      vertex -3.02177 1.1964 20
      vertex -3.02177 14.6786 20
    endloop
  endfacet
  facet normal 0 0 1
    outer loop
      vertex -3.14789 15.0668 20
      vertex -3.14789 0.808242 20
      vertex -3.02177 1.1964 20
    endloop
  endfacet
  facet normal 0 0 1
    outer loop
      vertex -3.22437 15.4677 20
      vertex -3.14789 0.808242 20
      vertex -3.14789 15.0668 20
    endloop
  endfacet
  facet normal 0 0 1
    outer loop
      vertex -3.22437 15.4677 20
      vertex -3.22437 0.407332 20
      vertex -3.14789 0.808242 20
    endloop
  endfacet
  facet normal 0 0 1
    outer loop
      vertex -4.5 22 20
      vertex -3.22437 15.4677 20
      vertex -3.25 15.875 20
    endloop
  endfacet
  facet normal 0 0 1
    outer loop
      vertex -3.22437 15.4677 20
      vertex -4.5 22 20
      vertex -3.22437 0.407332 20
    endloop
  endfacet
  facet normal 0 0 1
    outer loop
      vertex 3.22437 15.4677 20
      vertex 24.5 22 20
      vertex 3.25 15.875 20
    endloop
  endfacet
  facet normal 0 0 1
    outer loop
      vertex 24.5 22 20
      vertex 3.22437 16.2823 20
      vertex 3.25 15.875 20
    endloop
  endfacet
  facet normal 0 0 1
    outer loop
      vertex 24.5 22 20
      vertex 3.14789 16.6832 20
      vertex 3.22437 16.2823 20
    endloop
  endfacet
  facet normal 0 0 1
    outer loop
      vertex 24.5 22 20
      vertex 3.02177 17.0714 20
      vertex 3.14789 16.6832 20
    endloop
  endfacet
  facet normal 0 0 1
    outer loop
      vertex 24.5 22 20
      vertex 2.848 17.4407 20
      vertex 3.02177 17.0714 20
    endloop
  endfacet
  facet normal 0 0 1
    outer loop
      vertex 24.5 22 20
      vertex 2.6293 17.7853 20
      vertex 2.848 17.4407 20
    endloop
  endfacet
  facet normal 0 0 1
    outer loop
      vertex 24.5 22 20
      vertex 2.36915 18.0998 20
      vertex 2.6293 17.7853 20
    endloop
  endfacet
  facet normal 0 0 1
    outer loop
      vertex 24.5 22 20
      vertex 2.07163 18.3792 20
      vertex 2.36915 18.0998 20
    endloop
  endfacet
  facet normal 0 0 1
    outer loop
      vertex 24.5 22 20
      vertex 1.74144 18.6191 20
      vertex 2.07163 18.3792 20
    endloop
  endfacet
  facet normal 0 0 1
    outer loop
      vertex 24.5 22 20
      vertex 1.38378 18.8157 20
      vertex 1.74144 18.6191 20
    endloop
  endfacet
  facet normal 0 0 1
    outer loop
      vertex 24.5 22 20
      vertex 1.0043 18.9659 20
      vertex 1.38378 18.8157 20
    endloop
  endfacet
  facet normal -0 0 1
    outer loop
      vertex -4.5 22 20
      vertex 1.0043 18.9659 20
      vertex 24.5 22 20
    endloop
  endfacet
  facet normal 0 0 1
    outer loop
      vertex 1.0043 18.9659 20
      vertex -4.5 22 20
      vertex 0.608989 19.0674 20
    endloop
  endfacet
  facet normal 0 0 1
    outer loop
      vertex 0.608989 19.0674 20
      vertex -4.5 22 20
      vertex 0.204069 19.1186 20
    endloop
  endfacet
  facet normal 0 0 1
    outer loop
      vertex -4.5 -7 20
      vertex -3.22437 0.407332 20
      vertex -4.5 22 20
    endloop
  endfacet
  facet normal 0 0 1
    outer loop
      vertex -3.22437 16.2823 20
      vertex -4.5 22 20
      vertex -3.25 15.875 20
    endloop
  endfacet
  facet normal 0 0 1
    outer loop
      vertex -3.14789 16.6832 20
      vertex -4.5 22 20
      vertex -3.22437 16.2823 20
    endloop
  endfacet
  facet normal 0 0 1
    outer loop
      vertex -3.02177 17.0714 20
      vertex -4.5 22 20
      vertex -3.14789 16.6832 20
    endloop
  endfacet
  facet normal 0 0 1
    outer loop
      vertex -2.848 17.4407 20
      vertex -4.5 22 20
      vertex -3.02177 17.0714 20
    endloop
  endfacet
  facet normal 0 0 1
    outer loop
      vertex -2.6293 17.7853 20
      vertex -4.5 22 20
      vertex -2.848 17.4407 20
    endloop
  endfacet
  facet normal 0 0 1
    outer loop
      vertex -2.36915 18.0998 20
      vertex -4.5 22 20
      vertex -2.6293 17.7853 20
    endloop
  endfacet
  facet normal 0 0 1
    outer loop
      vertex -2.07163 18.3792 20
      vertex -4.5 22 20
      vertex -2.36915 18.0998 20
    endloop
  endfacet
  facet normal 0 0 1
    outer loop
      vertex -1.74144 18.6191 20
      vertex -4.5 22 20
      vertex -2.07163 18.3792 20
    endloop
  endfacet
  facet normal 0 0 1
    outer loop
      vertex -1.38378 18.8157 20
      vertex -4.5 22 20
      vertex -1.74144 18.6191 20
    endloop
  endfacet
  facet normal 0 0 1
    outer loop
      vertex -1.0043 18.9659 20
      vertex -4.5 22 20
      vertex -1.38378 18.8157 20
    endloop
  endfacet
  facet normal 0 0 1
    outer loop
      vertex -0.608989 19.0674 20
      vertex -4.5 22 20
      vertex -1.0043 18.9659 20
    endloop
  endfacet
  facet normal 0 0 1
    outer loop
      vertex -0.204069 19.1186 20
      vertex -4.5 22 20
      vertex -0.608989 19.0674 20
    endloop
  endfacet
  facet normal 0 0 1
    outer loop
      vertex 0.204069 19.1186 20
      vertex -4.5 22 20
      vertex -0.204069 19.1186 20
    endloop
  endfacet
  facet normal 0 0 1
    outer loop
      vertex 24.5 22 20
      vertex 3.25 0 20
      vertex 24.5 -7 20
    endloop
  endfacet
  facet normal -0 0 1
    outer loop
      vertex 3.22437 -0.407332 20
      vertex 24.5 -7 20
      vertex 3.25 0 20
    endloop
  endfacet
  facet normal -0 0 1
    outer loop
      vertex 3.14789 -0.808242 20
      vertex 24.5 -7 20
      vertex 3.22437 -0.407332 20
    endloop
  endfacet
  facet normal -0 0 1
    outer loop
      vertex 3.02177 -1.1964 20
      vertex 24.5 -7 20
      vertex 3.14789 -0.808242 20
    endloop
  endfacet
  facet normal -0 0 1
    outer loop
      vertex 2.848 -1.5657 20
      vertex 24.5 -7 20
      vertex 3.02177 -1.1964 20
    endloop
  endfacet
  facet normal -0 0 1
    outer loop
      vertex 2.6293 -1.9103 20
      vertex 24.5 -7 20
      vertex 2.848 -1.5657 20
    endloop
  endfacet
  facet normal -0 0 1
    outer loop
      vertex 2.36915 -2.22478 20
      vertex 24.5 -7 20
      vertex 2.6293 -1.9103 20
    endloop
  endfacet
  facet normal -0 0 1
    outer loop
      vertex 2.07163 -2.50417 20
      vertex 24.5 -7 20
      vertex 2.36915 -2.22478 20
    endloop
  endfacet
  facet normal -0 0 1
    outer loop
      vertex 1.74144 -2.74407 20
      vertex 24.5 -7 20
      vertex 2.07163 -2.50417 20
    endloop
  endfacet
  facet normal -0 0 1
    outer loop
      vertex 1.38378 -2.94069 20
      vertex 24.5 -7 20
      vertex 1.74144 -2.74407 20
    endloop
  endfacet
  facet normal 0 0 1
    outer loop
      vertex -4.5 -7 20
      vertex 1.38378 -2.94069 20
      vertex 1.0043 -3.09093 20
    endloop
  endfacet
  facet normal 0 0 1
    outer loop
      vertex -4.5 -7 20
      vertex 1.0043 -3.09093 20
      vertex 0.608989 -3.19243 20
    endloop
  endfacet
  facet normal 0 0 1
    outer loop
      vertex -4.5 -7 20
      vertex 0.608989 -3.19243 20
      vertex 0.204069 -3.24359 20
    endloop
  endfacet
  facet normal 0 0 1
    outer loop
      vertex -4.5 -7 20
      vertex 0.204069 -3.24359 20
      vertex -0.204069 -3.24359 20
    endloop
  endfacet
  facet normal 0 0 1
    outer loop
      vertex -4.5 -7 20
      vertex -0.204069 -3.24359 20
      vertex -0.608989 -3.19243 20
    endloop
  endfacet
  facet normal 0 0 1
    outer loop
      vertex 1.38378 -2.94069 20
      vertex -4.5 -7 20
      vertex 24.5 -7 20
    endloop
  endfacet
  facet normal 0 0 1
    outer loop
      vertex -1.0043 -3.09093 20
      vertex -4.5 -7 20
      vertex -0.608989 -3.19243 20
    endloop
  endfacet
  facet normal 0 0 1
    outer loop
      vertex -1.38378 -2.94069 20
      vertex -4.5 -7 20
      vertex -1.0043 -3.09093 20
    endloop
  endfacet
  facet normal 0 0 1
    outer loop
      vertex -1.74144 -2.74407 20
      vertex -4.5 -7 20
      vertex -1.38378 -2.94069 20
    endloop
  endfacet
  facet normal 0 0 1
    outer loop
      vertex -2.07163 -2.50417 20
      vertex -4.5 -7 20
      vertex -1.74144 -2.74407 20
    endloop
  endfacet
  facet normal 0 0 1
    outer loop
      vertex -2.36915 -2.22478 20
      vertex -4.5 -7 20
      vertex -2.07163 -2.50417 20
    endloop
  endfacet
  facet normal 0 0 1
    outer loop
      vertex -2.6293 -1.9103 20
      vertex -4.5 -7 20
      vertex -2.36915 -2.22478 20
    endloop
  endfacet
  facet normal 0 0 1
    outer loop
      vertex -2.848 -1.5657 20
      vertex -4.5 -7 20
      vertex -2.6293 -1.9103 20
    endloop
  endfacet
  facet normal 0 0 1
    outer loop
      vertex -3.02177 -1.1964 20
      vertex -4.5 -7 20
      vertex -2.848 -1.5657 20
    endloop
  endfacet
  facet normal 0 0 1
    outer loop
      vertex -3.14789 -0.808242 20
      vertex -4.5 -7 20
      vertex -3.02177 -1.1964 20
    endloop
  endfacet
  facet normal 0 0 1
    outer loop
      vertex -3.22437 -0.407332 20
      vertex -4.5 -7 20
      vertex -3.14789 -0.808242 20
    endloop
  endfacet
  facet normal 0 0 1
    outer loop
      vertex -3.25 0 20
      vertex -4.5 -7 20
      vertex -3.22437 -0.407332 20
    endloop
  endfacet
  facet normal 0 0 1
    outer loop
      vertex -3.22437 0.407332 20
      vertex -4.5 -7 20
      vertex -3.25 0 20
    endloop
  endfacet
  facet normal 1 -0 0
    outer loop
      vertex 24.5 -7 20
      vertex 24.5 22 0
      vertex 24.5 22 20
    endloop
  endfacet
  facet normal 1 0 0
    outer loop
      vertex 24.5 22 0
      vertex 24.5 -7 20
      vertex 24.5 -7 0
    endloop
  endfacet
  facet normal 0 1 -0
    outer loop
      vertex 24.5 22 0
      vertex -4.5 22 20
      vertex 24.5 22 20
    endloop
  endfacet
  facet normal 0 1 0
    outer loop
      vertex -4.5 22 20
      vertex 24.5 22 0
      vertex -4.5 22 0
    endloop
  endfacet
  facet normal 0 0 -1
    outer loop
      vertex 3.02177 1.1964 0
      vertex 24.5 -7 0
      vertex 3.14789 0.808242 0
    endloop
  endfacet
  facet normal 0 0 -1
    outer loop
      vertex 24.5 22 0
      vertex 3.22437 15.4677 0
      vertex 3.25 15.875 0
    endloop
  endfacet
  facet normal 0 0 -1
    outer loop
      vertex 24.5 -7 0
      vertex 3.02177 1.1964 0
      vertex 24.5 22 0
    endloop
  endfacet
  facet normal 0 0 -1
    outer loop
      vertex 24.5 22 0
      vertex 3.14789 15.0668 0
      vertex 3.22437 15.4677 0
    endloop
  endfacet
  facet normal 0 0 -1
    outer loop
      vertex 3.02177 14.6786 0
      vertex 24.5 22 0
      vertex 3.02177 1.1964 0
    endloop
  endfacet
  facet normal 0 0 -1
    outer loop
      vertex 24.5 22 0
      vertex 3.02177 14.6786 0
      vertex 3.14789 15.0668 0
    endloop
  endfacet
  facet normal 0 0 -1
    outer loop
      vertex 2.848 1.5657 0
      vertex 3.02177 14.6786 0
      vertex 3.02177 1.1964 0
    endloop
  endfacet
  facet normal 0 0 -1
    outer loop
      vertex 2.848 1.5657 0
      vertex 2.848 14.3093 0
      vertex 3.02177 14.6786 0
    endloop
  endfacet
  facet normal 0 0 -1
    outer loop
      vertex 2.6293 1.9103 0
      vertex 2.848 14.3093 0
      vertex 2.848 1.5657 0
    endloop
  endfacet
  facet normal 0 0 -1
    outer loop
      vertex 2.6293 1.9103 0
      vertex 2.6293 13.9647 0
      vertex 2.848 14.3093 0
    endloop
  endfacet
  facet normal 0 0 -1
    outer loop
      vertex 2.36915 2.22478 0
      vertex 2.6293 13.9647 0
      vertex 2.6293 1.9103 0
    endloop
  endfacet
  facet normal 0 0 -1
    outer loop
      vertex 2.36915 2.22478 0
      vertex 2.36915 13.6502 0
      vertex 2.6293 13.9647 0
    endloop
  endfacet
  facet normal 0 0 -1
    outer loop
      vertex 2.07163 2.50417 0
      vertex 2.36915 13.6502 0
      vertex 2.36915 2.22478 0
    endloop
  endfacet
  facet normal 0 0 -1
    outer loop
      vertex 2.07163 2.50417 0
      vertex 2.07163 13.3708 0
      vertex 2.36915 13.6502 0
    endloop
  endfacet
  facet normal 0 0 -1
    outer loop
      vertex 1.74144 2.74407 0
      vertex 2.07163 13.3708 0
      vertex 2.07163 2.50417 0
    endloop
  endfacet
  facet normal 0 0 -1
    outer loop
      vertex 1.74144 2.74407 0
      vertex 1.74144 13.1309 0
      vertex 2.07163 13.3708 0
    endloop
  endfacet
  facet normal 0 0 -1
    outer loop
      vertex 1.38378 2.94069 0
      vertex 1.74144 13.1309 0
      vertex 1.74144 2.74407 0
    endloop
  endfacet
  facet normal 0 0 -1
    outer loop
      vertex 1.38378 2.94069 0
      vertex 1.38378 12.9343 0
      vertex 1.74144 13.1309 0
    endloop
  endfacet
  facet normal 0 0 -1
    outer loop
      vertex 1.0043 3.09093 0
      vertex 1.38378 12.9343 0
      vertex 1.38378 2.94069 0
    endloop
  endfacet
  facet normal 0 0 -1
    outer loop
      vertex 1.0043 3.09093 0
      vertex 1.0043 12.7841 0
      vertex 1.38378 12.9343 0
    endloop
  endfacet
  facet normal 0 0 -1
    outer loop
      vertex 0.608989 3.19243 0
      vertex 1.0043 12.7841 0
      vertex 1.0043 3.09093 0
    endloop
  endfacet
  facet normal 0 0 -1
    outer loop
      vertex 0.608989 3.19243 0
      vertex 0.608989 12.6826 0
      vertex 1.0043 12.7841 0
    endloop
  endfacet
  facet normal 0 0 -1
    outer loop
      vertex 0.204069 3.24359 0
      vertex 0.608989 12.6826 0
      vertex 0.608989 3.19243 0
    endloop
  endfacet
  facet normal 0 0 -1
    outer loop
      vertex 0.204069 3.24359 0
      vertex 0.204069 12.6314 0
      vertex 0.608989 12.6826 0
    endloop
  endfacet
  facet normal 0 0 -1
    outer loop
      vertex -0.204069 3.24359 0
      vertex 0.204069 12.6314 0
      vertex 0.204069 3.24359 0
    endloop
  endfacet
  facet normal 0 0 -1
    outer loop
      vertex -0.204069 3.24359 0
      vertex -0.204069 12.6314 0
      vertex 0.204069 12.6314 0
    endloop
  endfacet
  facet normal 0 0 -1
    outer loop
      vertex -0.608989 3.19243 0
      vertex -0.204069 12.6314 0
      vertex -0.204069 3.24359 0
    endloop
  endfacet
  facet normal 0 0 -1
    outer loop
      vertex -0.608989 3.19243 0
      vertex -0.608989 12.6826 0
      vertex -0.204069 12.6314 0
    endloop
  endfacet
  facet normal 0 0 -1
    outer loop
      vertex -1.0043 3.09093 0
      vertex -0.608989 12.6826 0
      vertex -0.608989 3.19243 0
    endloop
  endfacet
  facet normal 0 0 -1
    outer loop
      vertex -1.0043 3.09093 0
      vertex -1.0043 12.7841 0
      vertex -0.608989 12.6826 0
    endloop
  endfacet
  facet normal 0 0 -1
    outer loop
      vertex -1.38378 2.94069 0
      vertex -1.0043 12.7841 0
      vertex -1.0043 3.09093 0
    endloop
  endfacet
  facet normal 0 0 -1
    outer loop
      vertex -1.38378 2.94069 0
      vertex -1.38378 12.9343 0
      vertex -1.0043 12.7841 0
    endloop
  endfacet
  facet normal 0 0 -1
    outer loop
      vertex -1.74144 2.74407 0
      vertex -1.38378 12.9343 0
      vertex -1.38378 2.94069 0
    endloop
  endfacet
  facet normal 0 0 -1
    outer loop
      vertex -1.74144 2.74407 0
      vertex -1.74144 13.1309 0
      vertex -1.38378 12.9343 0
    endloop
  endfacet
  facet normal 0 0 -1
    outer loop
      vertex -2.07163 2.50417 0
      vertex -1.74144 13.1309 0
      vertex -1.74144 2.74407 0
    endloop
  endfacet
  facet normal 0 0 -1
    outer loop
      vertex -2.07163 2.50417 0
      vertex -2.07163 13.3708 0
      vertex -1.74144 13.1309 0
    endloop
  endfacet
  facet normal 0 0 -1
    outer loop
      vertex -2.36915 2.22478 0
      vertex -2.07163 13.3708 0
      vertex -2.07163 2.50417 0
    endloop
  endfacet
  facet normal 0 0 -1
    outer loop
      vertex -2.36915 2.22478 0
      vertex -2.36915 13.6502 0
      vertex -2.07163 13.3708 0
    endloop
  endfacet
  facet normal 0 0 -1
    outer loop
      vertex -2.6293 1.9103 0
      vertex -2.36915 13.6502 0
      vertex -2.36915 2.22478 0
    endloop
  endfacet
  facet normal 0 0 -1
    outer loop
      vertex -2.6293 1.9103 0
      vertex -2.6293 13.9647 0
      vertex -2.36915 13.6502 0
    endloop
  endfacet
  facet normal 0 0 -1
    outer loop
      vertex -2.848 1.5657 0
      vertex -2.6293 13.9647 0
      vertex -2.6293 1.9103 0
    endloop
  endfacet
  facet normal 0 0 -1
    outer loop
      vertex -2.848 1.5657 0
      vertex -2.848 14.3093 0
      vertex -2.6293 13.9647 0
    endloop
  endfacet
  facet normal 0 0 -1
    outer loop
      vertex -3.02177 1.1964 0
      vertex -2.848 14.3093 0
      vertex -2.848 1.5657 0
    endloop
  endfacet
  facet normal 0 0 -1
    outer loop
      vertex -3.02177 1.1964 0
      vertex -3.02177 14.6786 0
      vertex -2.848 14.3093 0
    endloop
  endfacet
  facet normal 0 0 -1
    outer loop
      vertex -3.14789 0.808242 0
      vertex -3.02177 14.6786 0
      vertex -3.02177 1.1964 0
    endloop
  endfacet
  facet normal 0 0 -1
    outer loop
      vertex -3.14789 0.808242 0
      vertex -3.14789 15.0668 0
      vertex -3.02177 14.6786 0
    endloop
  endfacet
  facet normal 0 0 -1
    outer loop
      vertex -3.22437 0.407332 0
      vertex -3.14789 15.0668 0
      vertex -3.14789 0.808242 0
    endloop
  endfacet
  facet normal 0 0 -1
    outer loop
      vertex -3.22437 0.407332 0
      vertex -3.22437 15.4677 0
      vertex -3.14789 15.0668 0
    endloop
  endfacet
  facet normal 0 0 -1
    outer loop
      vertex -4.5 -7 0
      vertex -3.22437 0.407332 0
      vertex -3.25 0 0
    endloop
  endfacet
  facet normal 0 0 -1
    outer loop
      vertex -3.22437 0.407332 0
      vertex -4.5 22 0
      vertex -3.22437 15.4677 0
    endloop
  endfacet
  facet normal 0 0 -1
    outer loop
      vertex 3.22437 0.407332 0
      vertex 24.5 -7 0
      vertex 3.25 0 0
    endloop
  endfacet
  facet normal 0 0 -1
    outer loop
      vertex 24.5 -7 0
      vertex 3.22437 -0.407332 0
      vertex 3.25 0 0
    endloop
  endfacet
  facet normal 0 0 -1
    outer loop
      vertex 24.5 -7 0
      vertex 3.14789 -0.808242 0
      vertex 3.22437 -0.407332 0
    endloop
  endfacet
  facet normal 0 0 -1
    outer loop
      vertex 24.5 -7 0
      vertex 3.02177 -1.1964 0
      vertex 3.14789 -0.808242 0
    endloop
  endfacet
  facet normal 0 0 -1
    outer loop
      vertex 24.5 -7 0
      vertex 2.848 -1.5657 0
      vertex 3.02177 -1.1964 0
    endloop
  endfacet
  facet normal 0 0 -1
    outer loop
      vertex 24.5 -7 0
      vertex 2.6293 -1.9103 0
      vertex 2.848 -1.5657 0
    endloop
  endfacet
  facet normal 0 0 -1
    outer loop
      vertex 24.5 -7 0
      vertex 2.36915 -2.22478 0
      vertex 2.6293 -1.9103 0
    endloop
  endfacet
  facet normal 0 0 -1
    outer loop
      vertex 24.5 -7 0
      vertex 2.07163 -2.50417 0
      vertex 2.36915 -2.22478 0
    endloop
  endfacet
  facet normal 0 0 -1
    outer loop
      vertex 24.5 -7 0
      vertex 1.74144 -2.74407 0
      vertex 2.07163 -2.50417 0
    endloop
  endfacet
  facet normal 0 0 -1
    outer loop
      vertex 24.5 -7 0
      vertex 1.38378 -2.94069 0
      vertex 1.74144 -2.74407 0
    endloop
  endfacet
  facet normal 0 0 -1
    outer loop
      vertex -4.5 -7 0
      vertex 1.38378 -2.94069 0
      vertex 24.5 -7 0
    endloop
  endfacet
  facet normal 0 0 -1
    outer loop
      vertex 1.38378 -2.94069 0
      vertex -4.5 -7 0
      vertex 1.0043 -3.09093 0
    endloop
  endfacet
  facet normal 0 0 -1
    outer loop
      vertex 1.0043 -3.09093 0
      vertex -4.5 -7 0
      vertex 0.608989 -3.19243 0
    endloop
  endfacet
  facet normal 0 0 -1
    outer loop
      vertex 0.608989 -3.19243 0
      vertex -4.5 -7 0
      vertex 0.204069 -3.24359 0
    endloop
  endfacet
  facet normal -0 0 -1
    outer loop
      vertex 0.204069 -3.24359 0
      vertex -4.5 -7 0
      vertex -0.204069 -3.24359 0
    endloop
  endfacet
  facet normal -0 0 -1
    outer loop
      vertex -3.22437 0.407332 0
      vertex -4.5 -7 0
      vertex -4.5 22 0
    endloop
  endfacet
  facet normal -0 0 -1
    outer loop
      vertex -3.22437 -0.407332 0
      vertex -4.5 -7 0
      vertex -3.25 0 0
    endloop
  endfacet
  facet normal -0 0 -1
    outer loop
      vertex -3.14789 -0.808242 0
      vertex -4.5 -7 0
      vertex -3.22437 -0.407332 0
    endloop
  endfacet
  facet normal -0 0 -1
    outer loop
      vertex -3.02177 -1.1964 0
      vertex -4.5 -7 0
      vertex -3.14789 -0.808242 0
    endloop
  endfacet
  facet normal -0 0 -1
    outer loop
      vertex -2.848 -1.5657 0
      vertex -4.5 -7 0
      vertex -3.02177 -1.1964 0
    endloop
  endfacet
  facet normal -0 0 -1
    outer loop
      vertex -2.6293 -1.9103 0
      vertex -4.5 -7 0
      vertex -2.848 -1.5657 0
    endloop
  endfacet
  facet normal -0 0 -1
    outer loop
      vertex -2.36915 -2.22478 0
      vertex -4.5 -7 0
      vertex -2.6293 -1.9103 0
    endloop
  endfacet
  facet normal -0 0 -1
    outer loop
      vertex -2.07163 -2.50417 0
      vertex -4.5 -7 0
      vertex -2.36915 -2.22478 0
    endloop
  endfacet
  facet normal -0 0 -1
    outer loop
      vertex -1.74144 -2.74407 0
      vertex -4.5 -7 0
      vertex -2.07163 -2.50417 0
    endloop
  endfacet
  facet normal -0 0 -1
    outer loop
      vertex -1.38378 -2.94069 0
      vertex -4.5 -7 0
      vertex -1.74144 -2.74407 0
    endloop
  endfacet
  facet normal -0 0 -1
    outer loop
      vertex -1.0043 -3.09093 0
      vertex -4.5 -7 0
      vertex -1.38378 -2.94069 0
    endloop
  endfacet
  facet normal -0 0 -1
    outer loop
      vertex -0.608989 -3.19243 0
      vertex -4.5 -7 0
      vertex -1.0043 -3.09093 0
    endloop
  endfacet
  facet normal -0 0 -1
    outer loop
      vertex -0.204069 -3.24359 0
      vertex -4.5 -7 0
      vertex -0.608989 -3.19243 0
    endloop
  endfacet
  facet normal 0 0 -1
    outer loop
      vertex 3.14789 0.808242 0
      vertex 24.5 -7 0
      vertex 3.22437 0.407332 0
    endloop
  endfacet
  facet normal 0 0 -1
    outer loop
      vertex 3.22437 16.2823 0
      vertex 24.5 22 0
      vertex 3.25 15.875 0
    endloop
  endfacet
  facet normal 0 0 -1
    outer loop
      vertex 3.14789 16.6832 0
      vertex 24.5 22 0
      vertex 3.22437 16.2823 0
    endloop
  endfacet
  facet normal 0 0 -1
    outer loop
      vertex 3.02177 17.0714 0
      vertex 24.5 22 0
      vertex 3.14789 16.6832 0
    endloop
  endfacet
  facet normal 0 0 -1
    outer loop
      vertex 2.848 17.4407 0
      vertex 24.5 22 0
      vertex 3.02177 17.0714 0
    endloop
  endfacet
  facet normal 0 0 -1
    outer loop
      vertex 2.6293 17.7853 0
      vertex 24.5 22 0
      vertex 2.848 17.4407 0
    endloop
  endfacet
  facet normal 0 0 -1
    outer loop
      vertex 2.36915 18.0998 0
      vertex 24.5 22 0
      vertex 2.6293 17.7853 0
    endloop
  endfacet
  facet normal 0 0 -1
    outer loop
      vertex 2.07163 18.3792 0
      vertex 24.5 22 0
      vertex 2.36915 18.0998 0
    endloop
  endfacet
  facet normal 0 0 -1
    outer loop
      vertex 1.74144 18.6191 0
      vertex 24.5 22 0
      vertex 2.07163 18.3792 0
    endloop
  endfacet
  facet normal 0 0 -1
    outer loop
      vertex 1.38378 18.8157 0
      vertex 24.5 22 0
      vertex 1.74144 18.6191 0
    endloop
  endfacet
  facet normal 0 0 -1
    outer loop
      vertex 1.0043 18.9659 0
      vertex 24.5 22 0
      vertex 1.38378 18.8157 0
    endloop
  endfacet
  facet normal 0 0 -1
    outer loop
      vertex -4.5 22 0
      vertex 1.0043 18.9659 0
      vertex 0.608989 19.0674 0
    endloop
  endfacet
  facet normal 0 0 -1
    outer loop
      vertex -4.5 22 0
      vertex 0.608989 19.0674 0
      vertex 0.204069 19.1186 0
    endloop
  endfacet
  facet normal 0 0 -1
    outer loop
      vertex -4.5 22 0
      vertex 0.204069 19.1186 0
      vertex -0.204069 19.1186 0
    endloop
  endfacet
  facet normal 0 0 -1
    outer loop
      vertex 1.0043 18.9659 0
      vertex -4.5 22 0
      vertex 24.5 22 0
    endloop
  endfacet
  facet normal 0 0 -1
    outer loop
      vertex -0.608989 19.0674 0
      vertex -4.5 22 0
      vertex -0.204069 19.1186 0
    endloop
  endfacet
  facet normal 0 0 -1
    outer loop
      vertex -1.0043 18.9659 0
      vertex -4.5 22 0
      vertex -0.608989 19.0674 0
    endloop
  endfacet
  facet normal 0 0 -1
    outer loop
      vertex -1.38378 18.8157 0
      vertex -4.5 22 0
      vertex -1.0043 18.9659 0
    endloop
  endfacet
  facet normal 0 0 -1
    outer loop
      vertex -1.74144 18.6191 0
      vertex -4.5 22 0
      vertex -1.38378 18.8157 0
    endloop
  endfacet
  facet normal 0 0 -1
    outer loop
      vertex -2.07163 18.3792 0
      vertex -4.5 22 0
      vertex -1.74144 18.6191 0
    endloop
  endfacet
  facet normal 0 0 -1
    outer loop
      vertex -2.36915 18.0998 0
      vertex -4.5 22 0
      vertex -2.07163 18.3792 0
    endloop
  endfacet
  facet normal 0 0 -1
    outer loop
      vertex -2.6293 17.7853 0
      vertex -4.5 22 0
      vertex -2.36915 18.0998 0
    endloop
  endfacet
  facet normal 0 0 -1
    outer loop
      vertex -2.848 17.4407 0
      vertex -4.5 22 0
      vertex -2.6293 17.7853 0
    endloop
  endfacet
  facet normal 0 0 -1
    outer loop
      vertex -3.02177 17.0714 0
      vertex -4.5 22 0
      vertex -2.848 17.4407 0
    endloop
  endfacet
  facet normal 0 0 -1
    outer loop
      vertex -3.14789 16.6832 0
      vertex -4.5 22 0
      vertex -3.02177 17.0714 0
    endloop
  endfacet
  facet normal 0 0 -1
    outer loop
      vertex -3.22437 16.2823 0
      vertex -4.5 22 0
      vertex -3.14789 16.6832 0
    endloop
  endfacet
  facet normal 0 0 -1
    outer loop
      vertex -3.25 15.875 0
      vertex -4.5 22 0
      vertex -3.22437 16.2823 0
    endloop
  endfacet
  facet normal 0 0 -1
    outer loop
      vertex -3.22437 15.4677 0
      vertex -4.5 22 0
      vertex -3.25 15.875 0
    endloop
  endfacet
  facet normal 0 -1 0
    outer loop
      vertex -4.5 -7 0
      vertex 24.5 -7 20
      vertex -4.5 -7 20
    endloop
  endfacet
  facet normal 0 -1 -0
    outer loop
      vertex 24.5 -7 20
      vertex -4.5 -7 0
      vertex 24.5 -7 0
    endloop
  endfacet
endsolid OpenSCAD_Model
