<?xml version="1.0" standalone="no"?>
<!DOCTYPE svg PUBLIC "-//W3C//DTD SVG 1.1//EN" "http://www.w3.org/Graphics/SVG/1.1/DTD/svg11.dtd">
<svg width="30mm" height="407mm" viewBox="-5 -967 30 407" xmlns="http://www.w3.org/2000/svg" version="1.1">
<title>OpenSCAD Model</title>
<path d="
M 24.5,-967 L -4.5,-967 L -4.5,-938 L 24.5,-938 z
M -0.18837,-957.881 L -0.562134,-957.928 L -0.927048,-958.022 L -1.27733,-958.161 L -1.60747,-958.342 L -1.91226,-958.563
 L -2.1869,-958.821 L -2.42705,-959.112 L -2.62891,-959.43 L -2.78932,-959.771 L -2.90575,-960.129 L -2.97633,-960.499
 L -3,-960.875 L -2.97633,-961.251 L -2.90575,-961.621 L -2.78932,-961.979 L -2.62891,-962.32 L -2.42705,-962.638
 L -2.1869,-962.929 L -1.91226,-963.187 L -1.60747,-963.408 L -1.27733,-963.589 L -0.927048,-963.728 L -0.562134,-963.822
 L -0.18837,-963.869 L 0.18837,-963.869 L 0.562134,-963.822 L 0.927048,-963.728 L 1.27733,-963.589 L 1.60747,-963.408
 L 1.91226,-963.187 L 2.1869,-962.929 L 2.42705,-962.638 L 2.62891,-962.32 L 2.78932,-961.979 L 2.90575,-961.621
 L 2.97633,-961.251 L 3,-960.875 L 2.97633,-960.499 L 2.90575,-960.129 L 2.78932,-959.771 L 2.62891,-959.43
 L 2.42705,-959.112 L 2.1869,-958.821 L 1.91226,-958.563 L 1.60747,-958.342 L 1.27733,-958.161 L 0.927048,-958.022
 L 0.562134,-957.928 L 0.18837,-957.881 z
M -0.18837,-942.006 L -0.562134,-942.053 L -0.927048,-942.147 L -1.27733,-942.286 L -1.60747,-942.467 L -1.91226,-942.688
 L -2.1869,-942.946 L -2.42705,-943.237 L -2.62891,-943.555 L -2.78932,-943.896 L -2.90575,-944.254 L -2.97633,-944.624
 L -3,-945 L -2.97633,-945.376 L -2.90575,-945.746 L -2.78932,-946.104 L -2.62891,-946.445 L -2.42705,-946.763
 L -2.1869,-947.054 L -1.91226,-947.312 L -1.60747,-947.533 L -1.27733,-947.714 L -0.927048,-947.853 L -0.562134,-947.947
 L -0.18837,-947.994 L 0.18837,-947.994 L 0.562134,-947.947 L 0.927048,-947.853 L 1.27733,-947.714 L 1.60747,-947.533
 L 1.91226,-947.312 L 2.1869,-947.054 L 2.42705,-946.763 L 2.62891,-946.445 L 2.78932,-946.104 L 2.90575,-945.746
 L 2.97633,-945.376 L 3,-945 L 2.97633,-944.624 L 2.90575,-944.254 L 2.78932,-943.896 L 2.62891,-943.555
 L 2.42705,-943.237 L 2.1869,-942.946 L 1.91226,-942.688 L 1.60747,-942.467 L 1.27733,-942.286 L 0.927048,-942.147
 L 0.562134,-942.053 L 0.18837,-942.006 z
M 24.5,-778 L -4.5,-778 L -4.5,-749 L 24.5,-749 z
M -0.18837,-768.881 L -0.562134,-768.928 L -0.927048,-769.022 L -1.27733,-769.161 L -1.60747,-769.342 L -1.91226,-769.563
 L -2.1869,-769.821 L -2.42705,-770.112 L -2.62891,-770.43 L -2.78932,-770.771 L -2.90575,-771.129 L -2.97633,-771.499
 L -3,-771.875 L -2.97633,-772.251 L -2.90575,-772.621 L -2.78932,-772.979 L -2.62891,-773.32 L -2.42705,-773.638
 L -2.1869,-773.929 L -1.91226,-774.187 L -1.60747,-774.408 L -1.27733,-774.589 L -0.927048,-774.728 L -0.562134,-774.822
 L -0.18837,-774.869 L 0.18837,-774.869 L 0.562134,-774.822 L 0.927048,-774.728 L 1.27733,-774.589 L 1.60747,-774.408
 L 1.91226,-774.187 L 2.1869,-773.929 L 2.42705,-773.638 L 2.62891,-773.32 L 2.78932,-772.979 L 2.90575,-772.621
 L 2.97633,-772.251 L 3,-771.875 L 2.97633,-771.499 L 2.90575,-771.129 L 2.78932,-770.771 L 2.62891,-770.43
 L 2.42705,-770.112 L 2.1869,-769.821 L 1.91226,-769.563 L 1.60747,-769.342 L 1.27733,-769.161 L 0.927048,-769.022
 L 0.562134,-768.928 L 0.18837,-768.881 z
M -0.18837,-753.006 L -0.562134,-753.053 L -0.927048,-753.147 L -1.27733,-753.286 L -1.60747,-753.467 L -1.91226,-753.688
 L -2.1869,-753.946 L -2.42705,-754.237 L -2.62891,-754.555 L -2.78932,-754.896 L -2.90575,-755.254 L -2.97633,-755.624
 L -3,-756 L -2.97633,-756.376 L -2.90575,-756.746 L -2.78932,-757.104 L -2.62891,-757.445 L -2.42705,-757.763
 L -2.1869,-758.054 L -1.91226,-758.312 L -1.60747,-758.533 L -1.27733,-758.714 L -0.927048,-758.853 L -0.562134,-758.947
 L -0.18837,-758.994 L 0.18837,-758.994 L 0.562134,-758.947 L 0.927048,-758.853 L 1.27733,-758.714 L 1.60747,-758.533
 L 1.91226,-758.312 L 2.1869,-758.054 L 2.42705,-757.763 L 2.62891,-757.445 L 2.78932,-757.104 L 2.90575,-756.746
 L 2.97633,-756.376 L 3,-756 L 2.97633,-755.624 L 2.90575,-755.254 L 2.78932,-754.896 L 2.62891,-754.555
 L 2.42705,-754.237 L 2.1869,-753.946 L 1.91226,-753.688 L 1.60747,-753.467 L 1.27733,-753.286 L 0.927048,-753.147
 L 0.562134,-753.053 L 0.18837,-753.006 z
M 24.5,-589 L -4.5,-589 L -4.5,-560 L 24.5,-560 z
M -0.18837,-579.881 L -0.562134,-579.928 L -0.927048,-580.022 L -1.27733,-580.161 L -1.60747,-580.342 L -1.91226,-580.563
 L -2.1869,-580.821 L -2.42705,-581.112 L -2.62891,-581.43 L -2.78932,-581.771 L -2.90575,-582.129 L -2.97633,-582.499
 L -3,-582.875 L -2.97633,-583.251 L -2.90575,-583.621 L -2.78932,-583.979 L -2.62891,-584.32 L -2.42705,-584.638
 L -2.1869,-584.929 L -1.91226,-585.187 L -1.60747,-585.408 L -1.27733,-585.589 L -0.927048,-585.728 L -0.562134,-585.822
 L -0.18837,-585.869 L 0.18837,-585.869 L 0.562134,-585.822 L 0.927048,-585.728 L 1.27733,-585.589 L 1.60747,-585.408
 L 1.91226,-585.187 L 2.1869,-584.929 L 2.42705,-584.638 L 2.62891,-584.32 L 2.78932,-583.979 L 2.90575,-583.621
 L 2.97633,-583.251 L 3,-582.875 L 2.97633,-582.499 L 2.90575,-582.129 L 2.78932,-581.771 L 2.62891,-581.43
 L 2.42705,-581.112 L 2.1869,-580.821 L 1.91226,-580.563 L 1.60747,-580.342 L 1.27733,-580.161 L 0.927048,-580.022
 L 0.562134,-579.928 L 0.18837,-579.881 z
M -0.18837,-564.006 L -0.562134,-564.053 L -0.927048,-564.147 L -1.27733,-564.286 L -1.60747,-564.467 L -1.91226,-564.688
 L -2.1869,-564.946 L -2.42705,-565.237 L -2.62891,-565.555 L -2.78932,-565.896 L -2.90575,-566.254 L -2.97633,-566.624
 L -3,-567 L -2.97633,-567.376 L -2.90575,-567.746 L -2.78932,-568.104 L -2.62891,-568.445 L -2.42705,-568.763
 L -2.1869,-569.054 L -1.91226,-569.312 L -1.60747,-569.533 L -1.27733,-569.714 L -0.927048,-569.853 L -0.562134,-569.947
 L -0.18837,-569.994 L 0.18837,-569.994 L 0.562134,-569.947 L 0.927048,-569.853 L 1.27733,-569.714 L 1.60747,-569.533
 L 1.91226,-569.312 L 2.1869,-569.054 L 2.42705,-568.763 L 2.62891,-568.445 L 2.78932,-568.104 L 2.90575,-567.746
 L 2.97633,-567.376 L 3,-567 L 2.97633,-566.624 L 2.90575,-566.254 L 2.78932,-565.896 L 2.62891,-565.555
 L 2.42705,-565.237 L 2.1869,-564.946 L 1.91226,-564.688 L 1.60747,-564.467 L 1.27733,-564.286 L 0.927048,-564.147
 L 0.562134,-564.053 L 0.18837,-564.006 z
" stroke="black" fill="lightgray" stroke-width="0.5"/>
</svg>
