  0
SECTION
  2
BLOCKS
  0
ENDSEC
  0
SECTION
  2
ENTITIES
  0
LINE
  8
0
 10
24.5
 20
967
 11
-4.5
 21
967
  0
LINE
  8
0
 10
-4.5
 20
967
 11
-4.5
 21
938
  0
LINE
  8
0
 10
-4.5
 20
938
 11
24.5
 21
938
  0
LINE
  8
0
 10
24.5
 20
938
 11
24.5
 21
967
  0
LINE
  8
0
 10
-0.18837
 20
957.881
 11
-0.562134
 21
957.928
  0
LINE
  8
0
 10
-0.562134
 20
957.928
 11
-0.927048
 21
958.022
  0
LINE
  8
0
 10
-0.927048
 20
958.022
 11
-1.27733
 21
958.161
  0
LINE
  8
0
 10
-1.27733
 20
958.161
 11
-1.60747
 21
958.342
  0
LINE
  8
0
 10
-1.60747
 20
958.342
 11
-1.91226
 21
958.563
  0
LINE
  8
0
 10
-1.91226
 20
958.563
 11
-2.1869
 21
958.821
  0
LINE
  8
0
 10
-2.1869
 20
958.821
 11
-2.42705
 21
959.112
  0
LINE
  8
0
 10
-2.42705
 20
959.112
 11
-2.62891
 21
959.43
  0
LINE
  8
0
 10
-2.62891
 20
959.43
 11
-2.78932
 21
959.771
  0
LINE
  8
0
 10
-2.78932
 20
959.771
 11
-2.90575
 21
960.129
  0
LINE
  8
0
 10
-2.90575
 20
960.129
 11
-2.97633
 21
960.499
  0
LINE
  8
0
 10
-2.97633
 20
960.499
 11
-3
 21
960.875
  0
LINE
  8
0
 10
-3
 20
960.875
 11
-2.97633
 21
961.251
  0
LINE
  8
0
 10
-2.97633
 20
961.251
 11
-2.90575
 21
961.621
  0
LINE
  8
0
 10
-2.90575
 20
961.621
 11
-2.78932
 21
961.979
  0
LINE
  8
0
 10
-2.78932
 20
961.979
 11
-2.62891
 21
962.32
  0
LINE
  8
0
 10
-2.62891
 20
962.32
 11
-2.42705
 21
962.638
  0
LINE
  8
0
 10
-2.42705
 20
962.638
 11
-2.1869
 21
962.929
  0
LINE
  8
0
 10
-2.1869
 20
962.929
 11
-1.91226
 21
963.187
  0
LINE
  8
0
 10
-1.91226
 20
963.187
 11
-1.60747
 21
963.408
  0
LINE
  8
0
 10
-1.60747
 20
963.408
 11
-1.27733
 21
963.589
  0
LINE
  8
0
 10
-1.27733
 20
963.589
 11
-0.927048
 21
963.728
  0
LINE
  8
0
 10
-0.927048
 20
963.728
 11
-0.562134
 21
963.822
  0
LINE
  8
0
 10
-0.562134
 20
963.822
 11
-0.18837
 21
963.869
  0
LINE
  8
0
 10
-0.18837
 20
963.869
 11
0.18837
 21
963.869
  0
LINE
  8
0
 10
0.18837
 20
963.869
 11
0.562134
 21
963.822
  0
LINE
  8
0
 10
0.562134
 20
963.822
 11
0.927048
 21
963.728
  0
LINE
  8
0
 10
0.927048
 20
963.728
 11
1.27733
 21
963.589
  0
LINE
  8
0
 10
1.27733
 20
963.589
 11
1.60747
 21
963.408
  0
LINE
  8
0
 10
1.60747
 20
963.408
 11
1.91226
 21
963.187
  0
LINE
  8
0
 10
1.91226
 20
963.187
 11
2.1869
 21
962.929
  0
LINE
  8
0
 10
2.1869
 20
962.929
 11
2.42705
 21
962.638
  0
LINE
  8
0
 10
2.42705
 20
962.638
 11
2.62891
 21
962.32
  0
LINE
  8
0
 10
2.62891
 20
962.32
 11
2.78932
 21
961.979
  0
LINE
  8
0
 10
2.78932
 20
961.979
 11
2.90575
 21
961.621
  0
LINE
  8
0
 10
2.90575
 20
961.621
 11
2.97633
 21
961.251
  0
LINE
  8
0
 10
2.97633
 20
961.251
 11
3
 21
960.875
  0
LINE
  8
0
 10
3
 20
960.875
 11
2.97633
 21
960.499
  0
LINE
  8
0
 10
2.97633
 20
960.499
 11
2.90575
 21
960.129
  0
LINE
  8
0
 10
2.90575
 20
960.129
 11
2.78932
 21
959.771
  0
LINE
  8
0
 10
2.78932
 20
959.771
 11
2.62891
 21
959.43
  0
LINE
  8
0
 10
2.62891
 20
959.43
 11
2.42705
 21
959.112
  0
LINE
  8
0
 10
2.42705
 20
959.112
 11
2.1869
 21
958.821
  0
LINE
  8
0
 10
2.1869
 20
958.821
 11
1.91226
 21
958.563
  0
LINE
  8
0
 10
1.91226
 20
958.563
 11
1.60747
 21
958.342
  0
LINE
  8
0
 10
1.60747
 20
958.342
 11
1.27733
 21
958.161
  0
LINE
  8
0
 10
1.27733
 20
958.161
 11
0.927048
 21
958.022
  0
LINE
  8
0
 10
0.927048
 20
958.022
 11
0.562134
 21
957.928
  0
LINE
  8
0
 10
0.562134
 20
957.928
 11
0.18837
 21
957.881
  0
LINE
  8
0
 10
0.18837
 20
957.881
 11
-0.18837
 21
957.881
  0
LINE
  8
0
 10
-0.18837
 20
942.006
 11
-0.562134
 21
942.053
  0
LINE
  8
0
 10
-0.562134
 20
942.053
 11
-0.927048
 21
942.147
  0
LINE
  8
0
 10
-0.927048
 20
942.147
 11
-1.27733
 21
942.286
  0
LINE
  8
0
 10
-1.27733
 20
942.286
 11
-1.60747
 21
942.467
  0
LINE
  8
0
 10
-1.60747
 20
942.467
 11
-1.91226
 21
942.688
  0
LINE
  8
0
 10
-1.91226
 20
942.688
 11
-2.1869
 21
942.946
  0
LINE
  8
0
 10
-2.1869
 20
942.946
 11
-2.42705
 21
943.237
  0
LINE
  8
0
 10
-2.42705
 20
943.237
 11
-2.62891
 21
943.555
  0
LINE
  8
0
 10
-2.62891
 20
943.555
 11
-2.78932
 21
943.896
  0
LINE
  8
0
 10
-2.78932
 20
943.896
 11
-2.90575
 21
944.254
  0
LINE
  8
0
 10
-2.90575
 20
944.254
 11
-2.97633
 21
944.624
  0
LINE
  8
0
 10
-2.97633
 20
944.624
 11
-3
 21
945
  0
LINE
  8
0
 10
-3
 20
945
 11
-2.97633
 21
945.376
  0
LINE
  8
0
 10
-2.97633
 20
945.376
 11
-2.90575
 21
945.746
  0
LINE
  8
0
 10
-2.90575
 20
945.746
 11
-2.78932
 21
946.104
  0
LINE
  8
0
 10
-2.78932
 20
946.104
 11
-2.62891
 21
946.445
  0
LINE
  8
0
 10
-2.62891
 20
946.445
 11
-2.42705
 21
946.763
  0
LINE
  8
0
 10
-2.42705
 20
946.763
 11
-2.1869
 21
947.054
  0
LINE
  8
0
 10
-2.1869
 20
947.054
 11
-1.91226
 21
947.312
  0
LINE
  8
0
 10
-1.91226
 20
947.312
 11
-1.60747
 21
947.533
  0
LINE
  8
0
 10
-1.60747
 20
947.533
 11
-1.27733
 21
947.714
  0
LINE
  8
0
 10
-1.27733
 20
947.714
 11
-0.927048
 21
947.853
  0
LINE
  8
0
 10
-0.927048
 20
947.853
 11
-0.562134
 21
947.947
  0
LINE
  8
0
 10
-0.562134
 20
947.947
 11
-0.18837
 21
947.994
  0
LINE
  8
0
 10
-0.18837
 20
947.994
 11
0.18837
 21
947.994
  0
LINE
  8
0
 10
0.18837
 20
947.994
 11
0.562134
 21
947.947
  0
LINE
  8
0
 10
0.562134
 20
947.947
 11
0.927048
 21
947.853
  0
LINE
  8
0
 10
0.927048
 20
947.853
 11
1.27733
 21
947.714
  0
LINE
  8
0
 10
1.27733
 20
947.714
 11
1.60747
 21
947.533
  0
LINE
  8
0
 10
1.60747
 20
947.533
 11
1.91226
 21
947.312
  0
LINE
  8
0
 10
1.91226
 20
947.312
 11
2.1869
 21
947.054
  0
LINE
  8
0
 10
2.1869
 20
947.054
 11
2.42705
 21
946.763
  0
LINE
  8
0
 10
2.42705
 20
946.763
 11
2.62891
 21
946.445
  0
LINE
  8
0
 10
2.62891
 20
946.445
 11
2.78932
 21
946.104
  0
LINE
  8
0
 10
2.78932
 20
946.104
 11
2.90575
 21
945.746
  0
LINE
  8
0
 10
2.90575
 20
945.746
 11
2.97633
 21
945.376
  0
LINE
  8
0
 10
2.97633
 20
945.376
 11
3
 21
945
  0
LINE
  8
0
 10
3
 20
945
 11
2.97633
 21
944.624
  0
LINE
  8
0
 10
2.97633
 20
944.624
 11
2.90575
 21
944.254
  0
LINE
  8
0
 10
2.90575
 20
944.254
 11
2.78932
 21
943.896
  0
LINE
  8
0
 10
2.78932
 20
943.896
 11
2.62891
 21
943.555
  0
LINE
  8
0
 10
2.62891
 20
943.555
 11
2.42705
 21
943.237
  0
LINE
  8
0
 10
2.42705
 20
943.237
 11
2.1869
 21
942.946
  0
LINE
  8
0
 10
2.1869
 20
942.946
 11
1.91226
 21
942.688
  0
LINE
  8
0
 10
1.91226
 20
942.688
 11
1.60747
 21
942.467
  0
LINE
  8
0
 10
1.60747
 20
942.467
 11
1.27733
 21
942.286
  0
LINE
  8
0
 10
1.27733
 20
942.286
 11
0.927048
 21
942.147
  0
LINE
  8
0
 10
0.927048
 20
942.147
 11
0.562134
 21
942.053
  0
LINE
  8
0
 10
0.562134
 20
942.053
 11
0.18837
 21
942.006
  0
LINE
  8
0
 10
0.18837
 20
942.006
 11
-0.18837
 21
942.006
  0
LINE
  8
0
 10
24.5
 20
778
 11
-4.5
 21
778
  0
LINE
  8
0
 10
-4.5
 20
778
 11
-4.5
 21
749
  0
LINE
  8
0
 10
-4.5
 20
749
 11
24.5
 21
749
  0
LINE
  8
0
 10
24.5
 20
749
 11
24.5
 21
778
  0
LINE
  8
0
 10
-0.18837
 20
768.881
 11
-0.562134
 21
768.928
  0
LINE
  8
0
 10
-0.562134
 20
768.928
 11
-0.927048
 21
769.022
  0
LINE
  8
0
 10
-0.927048
 20
769.022
 11
-1.27733
 21
769.161
  0
LINE
  8
0
 10
-1.27733
 20
769.161
 11
-1.60747
 21
769.342
  0
LINE
  8
0
 10
-1.60747
 20
769.342
 11
-1.91226
 21
769.563
  0
LINE
  8
0
 10
-1.91226
 20
769.563
 11
-2.1869
 21
769.821
  0
LINE
  8
0
 10
-2.1869
 20
769.821
 11
-2.42705
 21
770.112
  0
LINE
  8
0
 10
-2.42705
 20
770.112
 11
-2.62891
 21
770.43
  0
LINE
  8
0
 10
-2.62891
 20
770.43
 11
-2.78932
 21
770.771
  0
LINE
  8
0
 10
-2.78932
 20
770.771
 11
-2.90575
 21
771.129
  0
LINE
  8
0
 10
-2.90575
 20
771.129
 11
-2.97633
 21
771.499
  0
LINE
  8
0
 10
-2.97633
 20
771.499
 11
-3
 21
771.875
  0
LINE
  8
0
 10
-3
 20
771.875
 11
-2.97633
 21
772.251
  0
LINE
  8
0
 10
-2.97633
 20
772.251
 11
-2.90575
 21
772.621
  0
LINE
  8
0
 10
-2.90575
 20
772.621
 11
-2.78932
 21
772.979
  0
LINE
  8
0
 10
-2.78932
 20
772.979
 11
-2.62891
 21
773.32
  0
LINE
  8
0
 10
-2.62891
 20
773.32
 11
-2.42705
 21
773.638
  0
LINE
  8
0
 10
-2.42705
 20
773.638
 11
-2.1869
 21
773.929
  0
LINE
  8
0
 10
-2.1869
 20
773.929
 11
-1.91226
 21
774.187
  0
LINE
  8
0
 10
-1.91226
 20
774.187
 11
-1.60747
 21
774.408
  0
LINE
  8
0
 10
-1.60747
 20
774.408
 11
-1.27733
 21
774.589
  0
LINE
  8
0
 10
-1.27733
 20
774.589
 11
-0.927048
 21
774.728
  0
LINE
  8
0
 10
-0.927048
 20
774.728
 11
-0.562134
 21
774.822
  0
LINE
  8
0
 10
-0.562134
 20
774.822
 11
-0.18837
 21
774.869
  0
LINE
  8
0
 10
-0.18837
 20
774.869
 11
0.18837
 21
774.869
  0
LINE
  8
0
 10
0.18837
 20
774.869
 11
0.562134
 21
774.822
  0
LINE
  8
0
 10
0.562134
 20
774.822
 11
0.927048
 21
774.728
  0
LINE
  8
0
 10
0.927048
 20
774.728
 11
1.27733
 21
774.589
  0
LINE
  8
0
 10
1.27733
 20
774.589
 11
1.60747
 21
774.408
  0
LINE
  8
0
 10
1.60747
 20
774.408
 11
1.91226
 21
774.187
  0
LINE
  8
0
 10
1.91226
 20
774.187
 11
2.1869
 21
773.929
  0
LINE
  8
0
 10
2.1869
 20
773.929
 11
2.42705
 21
773.638
  0
LINE
  8
0
 10
2.42705
 20
773.638
 11
2.62891
 21
773.32
  0
LINE
  8
0
 10
2.62891
 20
773.32
 11
2.78932
 21
772.979
  0
LINE
  8
0
 10
2.78932
 20
772.979
 11
2.90575
 21
772.621
  0
LINE
  8
0
 10
2.90575
 20
772.621
 11
2.97633
 21
772.251
  0
LINE
  8
0
 10
2.97633
 20
772.251
 11
3
 21
771.875
  0
LINE
  8
0
 10
3
 20
771.875
 11
2.97633
 21
771.499
  0
LINE
  8
0
 10
2.97633
 20
771.499
 11
2.90575
 21
771.129
  0
LINE
  8
0
 10
2.90575
 20
771.129
 11
2.78932
 21
770.771
  0
LINE
  8
0
 10
2.78932
 20
770.771
 11
2.62891
 21
770.43
  0
LINE
  8
0
 10
2.62891
 20
770.43
 11
2.42705
 21
770.112
  0
LINE
  8
0
 10
2.42705
 20
770.112
 11
2.1869
 21
769.821
  0
LINE
  8
0
 10
2.1869
 20
769.821
 11
1.91226
 21
769.563
  0
LINE
  8
0
 10
1.91226
 20
769.563
 11
1.60747
 21
769.342
  0
LINE
  8
0
 10
1.60747
 20
769.342
 11
1.27733
 21
769.161
  0
LINE
  8
0
 10
1.27733
 20
769.161
 11
0.927048
 21
769.022
  0
LINE
  8
0
 10
0.927048
 20
769.022
 11
0.562134
 21
768.928
  0
LINE
  8
0
 10
0.562134
 20
768.928
 11
0.18837
 21
768.881
  0
LINE
  8
0
 10
0.18837
 20
768.881
 11
-0.18837
 21
768.881
  0
LINE
  8
0
 10
-0.18837
 20
753.006
 11
-0.562134
 21
753.053
  0
LINE
  8
0
 10
-0.562134
 20
753.053
 11
-0.927048
 21
753.147
  0
LINE
  8
0
 10
-0.927048
 20
753.147
 11
-1.27733
 21
753.286
  0
LINE
  8
0
 10
-1.27733
 20
753.286
 11
-1.60747
 21
753.467
  0
LINE
  8
0
 10
-1.60747
 20
753.467
 11
-1.91226
 21
753.688
  0
LINE
  8
0
 10
-1.91226
 20
753.688
 11
-2.1869
 21
753.946
  0
LINE
  8
0
 10
-2.1869
 20
753.946
 11
-2.42705
 21
754.237
  0
LINE
  8
0
 10
-2.42705
 20
754.237
 11
-2.62891
 21
754.555
  0
LINE
  8
0
 10
-2.62891
 20
754.555
 11
-2.78932
 21
754.896
  0
LINE
  8
0
 10
-2.78932
 20
754.896
 11
-2.90575
 21
755.254
  0
LINE
  8
0
 10
-2.90575
 20
755.254
 11
-2.97633
 21
755.624
  0
LINE
  8
0
 10
-2.97633
 20
755.624
 11
-3
 21
756
  0
LINE
  8
0
 10
-3
 20
756
 11
-2.97633
 21
756.376
  0
LINE
  8
0
 10
-2.97633
 20
756.376
 11
-2.90575
 21
756.746
  0
LINE
  8
0
 10
-2.90575
 20
756.746
 11
-2.78932
 21
757.104
  0
LINE
  8
0
 10
-2.78932
 20
757.104
 11
-2.62891
 21
757.445
  0
LINE
  8
0
 10
-2.62891
 20
757.445
 11
-2.42705
 21
757.763
  0
LINE
  8
0
 10
-2.42705
 20
757.763
 11
-2.1869
 21
758.054
  0
LINE
  8
0
 10
-2.1869
 20
758.054
 11
-1.91226
 21
758.312
  0
LINE
  8
0
 10
-1.91226
 20
758.312
 11
-1.60747
 21
758.533
  0
LINE
  8
0
 10
-1.60747
 20
758.533
 11
-1.27733
 21
758.714
  0
LINE
  8
0
 10
-1.27733
 20
758.714
 11
-0.927048
 21
758.853
  0
LINE
  8
0
 10
-0.927048
 20
758.853
 11
-0.562134
 21
758.947
  0
LINE
  8
0
 10
-0.562134
 20
758.947
 11
-0.18837
 21
758.994
  0
LINE
  8
0
 10
-0.18837
 20
758.994
 11
0.18837
 21
758.994
  0
LINE
  8
0
 10
0.18837
 20
758.994
 11
0.562134
 21
758.947
  0
LINE
  8
0
 10
0.562134
 20
758.947
 11
0.927048
 21
758.853
  0
LINE
  8
0
 10
0.927048
 20
758.853
 11
1.27733
 21
758.714
  0
LINE
  8
0
 10
1.27733
 20
758.714
 11
1.60747
 21
758.533
  0
LINE
  8
0
 10
1.60747
 20
758.533
 11
1.91226
 21
758.312
  0
LINE
  8
0
 10
1.91226
 20
758.312
 11
2.1869
 21
758.054
  0
LINE
  8
0
 10
2.1869
 20
758.054
 11
2.42705
 21
757.763
  0
LINE
  8
0
 10
2.42705
 20
757.763
 11
2.62891
 21
757.445
  0
LINE
  8
0
 10
2.62891
 20
757.445
 11
2.78932
 21
757.104
  0
LINE
  8
0
 10
2.78932
 20
757.104
 11
2.90575
 21
756.746
  0
LINE
  8
0
 10
2.90575
 20
756.746
 11
2.97633
 21
756.376
  0
LINE
  8
0
 10
2.97633
 20
756.376
 11
3
 21
756
  0
LINE
  8
0
 10
3
 20
756
 11
2.97633
 21
755.624
  0
LINE
  8
0
 10
2.97633
 20
755.624
 11
2.90575
 21
755.254
  0
LINE
  8
0
 10
2.90575
 20
755.254
 11
2.78932
 21
754.896
  0
LINE
  8
0
 10
2.78932
 20
754.896
 11
2.62891
 21
754.555
  0
LINE
  8
0
 10
2.62891
 20
754.555
 11
2.42705
 21
754.237
  0
LINE
  8
0
 10
2.42705
 20
754.237
 11
2.1869
 21
753.946
  0
LINE
  8
0
 10
2.1869
 20
753.946
 11
1.91226
 21
753.688
  0
LINE
  8
0
 10
1.91226
 20
753.688
 11
1.60747
 21
753.467
  0
LINE
  8
0
 10
1.60747
 20
753.467
 11
1.27733
 21
753.286
  0
LINE
  8
0
 10
1.27733
 20
753.286
 11
0.927048
 21
753.147
  0
LINE
  8
0
 10
0.927048
 20
753.147
 11
0.562134
 21
753.053
  0
LINE
  8
0
 10
0.562134
 20
753.053
 11
0.18837
 21
753.006
  0
LINE
  8
0
 10
0.18837
 20
753.006
 11
-0.18837
 21
753.006
  0
LINE
  8
0
 10
24.5
 20
589
 11
-4.5
 21
589
  0
LINE
  8
0
 10
-4.5
 20
589
 11
-4.5
 21
560
  0
LINE
  8
0
 10
-4.5
 20
560
 11
24.5
 21
560
  0
LINE
  8
0
 10
24.5
 20
560
 11
24.5
 21
589
  0
LINE
  8
0
 10
-0.18837
 20
579.881
 11
-0.562134
 21
579.928
  0
LINE
  8
0
 10
-0.562134
 20
579.928
 11
-0.927048
 21
580.022
  0
LINE
  8
0
 10
-0.927048
 20
580.022
 11
-1.27733
 21
580.161
  0
LINE
  8
0
 10
-1.27733
 20
580.161
 11
-1.60747
 21
580.342
  0
LINE
  8
0
 10
-1.60747
 20
580.342
 11
-1.91226
 21
580.563
  0
LINE
  8
0
 10
-1.91226
 20
580.563
 11
-2.1869
 21
580.821
  0
LINE
  8
0
 10
-2.1869
 20
580.821
 11
-2.42705
 21
581.112
  0
LINE
  8
0
 10
-2.42705
 20
581.112
 11
-2.62891
 21
581.43
  0
LINE
  8
0
 10
-2.62891
 20
581.43
 11
-2.78932
 21
581.771
  0
LINE
  8
0
 10
-2.78932
 20
581.771
 11
-2.90575
 21
582.129
  0
LINE
  8
0
 10
-2.90575
 20
582.129
 11
-2.97633
 21
582.499
  0
LINE
  8
0
 10
-2.97633
 20
582.499
 11
-3
 21
582.875
  0
LINE
  8
0
 10
-3
 20
582.875
 11
-2.97633
 21
583.251
  0
LINE
  8
0
 10
-2.97633
 20
583.251
 11
-2.90575
 21
583.621
  0
LINE
  8
0
 10
-2.90575
 20
583.621
 11
-2.78932
 21
583.979
  0
LINE
  8
0
 10
-2.78932
 20
583.979
 11
-2.62891
 21
584.32
  0
LINE
  8
0
 10
-2.62891
 20
584.32
 11
-2.42705
 21
584.638
  0
LINE
  8
0
 10
-2.42705
 20
584.638
 11
-2.1869
 21
584.929
  0
LINE
  8
0
 10
-2.1869
 20
584.929
 11
-1.91226
 21
585.187
  0
LINE
  8
0
 10
-1.91226
 20
585.187
 11
-1.60747
 21
585.408
  0
LINE
  8
0
 10
-1.60747
 20
585.408
 11
-1.27733
 21
585.589
  0
LINE
  8
0
 10
-1.27733
 20
585.589
 11
-0.927048
 21
585.728
  0
LINE
  8
0
 10
-0.927048
 20
585.728
 11
-0.562134
 21
585.822
  0
LINE
  8
0
 10
-0.562134
 20
585.822
 11
-0.18837
 21
585.869
  0
LINE
  8
0
 10
-0.18837
 20
585.869
 11
0.18837
 21
585.869
  0
LINE
  8
0
 10
0.18837
 20
585.869
 11
0.562134
 21
585.822
  0
LINE
  8
0
 10
0.562134
 20
585.822
 11
0.927048
 21
585.728
  0
LINE
  8
0
 10
0.927048
 20
585.728
 11
1.27733
 21
585.589
  0
LINE
  8
0
 10
1.27733
 20
585.589
 11
1.60747
 21
585.408
  0
LINE
  8
0
 10
1.60747
 20
585.408
 11
1.91226
 21
585.187
  0
LINE
  8
0
 10
1.91226
 20
585.187
 11
2.1869
 21
584.929
  0
LINE
  8
0
 10
2.1869
 20
584.929
 11
2.42705
 21
584.638
  0
LINE
  8
0
 10
2.42705
 20
584.638
 11
2.62891
 21
584.32
  0
LINE
  8
0
 10
2.62891
 20
584.32
 11
2.78932
 21
583.979
  0
LINE
  8
0
 10
2.78932
 20
583.979
 11
2.90575
 21
583.621
  0
LINE
  8
0
 10
2.90575
 20
583.621
 11
2.97633
 21
583.251
  0
LINE
  8
0
 10
2.97633
 20
583.251
 11
3
 21
582.875
  0
LINE
  8
0
 10
3
 20
582.875
 11
2.97633
 21
582.499
  0
LINE
  8
0
 10
2.97633
 20
582.499
 11
2.90575
 21
582.129
  0
LINE
  8
0
 10
2.90575
 20
582.129
 11
2.78932
 21
581.771
  0
LINE
  8
0
 10
2.78932
 20
581.771
 11
2.62891
 21
581.43
  0
LINE
  8
0
 10
2.62891
 20
581.43
 11
2.42705
 21
581.112
  0
LINE
  8
0
 10
2.42705
 20
581.112
 11
2.1869
 21
580.821
  0
LINE
  8
0
 10
2.1869
 20
580.821
 11
1.91226
 21
580.563
  0
LINE
  8
0
 10
1.91226
 20
580.563
 11
1.60747
 21
580.342
  0
LINE
  8
0
 10
1.60747
 20
580.342
 11
1.27733
 21
580.161
  0
LINE
  8
0
 10
1.27733
 20
580.161
 11
0.927048
 21
580.022
  0
LINE
  8
0
 10
0.927048
 20
580.022
 11
0.562134
 21
579.928
  0
LINE
  8
0
 10
0.562134
 20
579.928
 11
0.18837
 21
579.881
  0
LINE
  8
0
 10
0.18837
 20
579.881
 11
-0.18837
 21
579.881
  0
LINE
  8
0
 10
-0.18837
 20
564.006
 11
-0.562134
 21
564.053
  0
LINE
  8
0
 10
-0.562134
 20
564.053
 11
-0.927048
 21
564.147
  0
LINE
  8
0
 10
-0.927048
 20
564.147
 11
-1.27733
 21
564.286
  0
LINE
  8
0
 10
-1.27733
 20
564.286
 11
-1.60747
 21
564.467
  0
LINE
  8
0
 10
-1.60747
 20
564.467
 11
-1.91226
 21
564.688
  0
LINE
  8
0
 10
-1.91226
 20
564.688
 11
-2.1869
 21
564.946
  0
LINE
  8
0
 10
-2.1869
 20
564.946
 11
-2.42705
 21
565.237
  0
LINE
  8
0
 10
-2.42705
 20
565.237
 11
-2.62891
 21
565.555
  0
LINE
  8
0
 10
-2.62891
 20
565.555
 11
-2.78932
 21
565.896
  0
LINE
  8
0
 10
-2.78932
 20
565.896
 11
-2.90575
 21
566.254
  0
LINE
  8
0
 10
-2.90575
 20
566.254
 11
-2.97633
 21
566.624
  0
LINE
  8
0
 10
-2.97633
 20
566.624
 11
-3
 21
567
  0
LINE
  8
0
 10
-3
 20
567
 11
-2.97633
 21
567.376
  0
LINE
  8
0
 10
-2.97633
 20
567.376
 11
-2.90575
 21
567.746
  0
LINE
  8
0
 10
-2.90575
 20
567.746
 11
-2.78932
 21
568.104
  0
LINE
  8
0
 10
-2.78932
 20
568.104
 11
-2.62891
 21
568.445
  0
LINE
  8
0
 10
-2.62891
 20
568.445
 11
-2.42705
 21
568.763
  0
LINE
  8
0
 10
-2.42705
 20
568.763
 11
-2.1869
 21
569.054
  0
LINE
  8
0
 10
-2.1869
 20
569.054
 11
-1.91226
 21
569.312
  0
LINE
  8
0
 10
-1.91226
 20
569.312
 11
-1.60747
 21
569.533
  0
LINE
  8
0
 10
-1.60747
 20
569.533
 11
-1.27733
 21
569.714
  0
LINE
  8
0
 10
-1.27733
 20
569.714
 11
-0.927048
 21
569.853
  0
LINE
  8
0
 10
-0.927048
 20
569.853
 11
-0.562134
 21
569.947
  0
LINE
  8
0
 10
-0.562134
 20
569.947
 11
-0.18837
 21
569.994
  0
LINE
  8
0
 10
-0.18837
 20
569.994
 11
0.18837
 21
569.994
  0
LINE
  8
0
 10
0.18837
 20
569.994
 11
0.562134
 21
569.947
  0
LINE
  8
0
 10
0.562134
 20
569.947
 11
0.927048
 21
569.853
  0
LINE
  8
0
 10
0.927048
 20
569.853
 11
1.27733
 21
569.714
  0
LINE
  8
0
 10
1.27733
 20
569.714
 11
1.60747
 21
569.533
  0
LINE
  8
0
 10
1.60747
 20
569.533
 11
1.91226
 21
569.312
  0
LINE
  8
0
 10
1.91226
 20
569.312
 11
2.1869
 21
569.054
  0
LINE
  8
0
 10
2.1869
 20
569.054
 11
2.42705
 21
568.763
  0
LINE
  8
0
 10
2.42705
 20
568.763
 11
2.62891
 21
568.445
  0
LINE
  8
0
 10
2.62891
 20
568.445
 11
2.78932
 21
568.104
  0
LINE
  8
0
 10
2.78932
 20
568.104
 11
2.90575
 21
567.746
  0
LINE
  8
0
 10
2.90575
 20
567.746
 11
2.97633
 21
567.376
  0
LINE
  8
0
 10
2.97633
 20
567.376
 11
3
 21
567
  0
LINE
  8
0
 10
3
 20
567
 11
2.97633
 21
566.624
  0
LINE
  8
0
 10
2.97633
 20
566.624
 11
2.90575
 21
566.254
  0
LINE
  8
0
 10
2.90575
 20
566.254
 11
2.78932
 21
565.896
  0
LINE
  8
0
 10
2.78932
 20
565.896
 11
2.62891
 21
565.555
  0
LINE
  8
0
 10
2.62891
 20
565.555
 11
2.42705
 21
565.237
  0
LINE
  8
0
 10
2.42705
 20
565.237
 11
2.1869
 21
564.946
  0
LINE
  8
0
 10
2.1869
 20
564.946
 11
1.91226
 21
564.688
  0
LINE
  8
0
 10
1.91226
 20
564.688
 11
1.60747
 21
564.467
  0
LINE
  8
0
 10
1.60747
 20
564.467
 11
1.27733
 21
564.286
  0
LINE
  8
0
 10
1.27733
 20
564.286
 11
0.927048
 21
564.147
  0
LINE
  8
0
 10
0.927048
 20
564.147
 11
0.562134
 21
564.053
  0
LINE
  8
0
 10
0.562134
 20
564.053
 11
0.18837
 21
564.006
  0
LINE
  8
0
 10
0.18837
 20
564.006
 11
-0.18837
 21
564.006
  0
ENDSEC
  0
SECTION
  2
OBJECTS
  0
DICTIONARY
  0
ENDSEC
  0
EOF
